<?xml version="1.0" encoding="UTF-8" standalone="no"?>
<!-- Created with Inkscape (http://www.inkscape.org/) -->

<svg
   xmlns:dc="http://purl.org/dc/elements/1.1/"
   xmlns:cc="http://creativecommons.org/ns#"
   xmlns:rdf="http://www.w3.org/1999/02/22-rdf-syntax-ns#"
   xmlns:svg="http://www.w3.org/2000/svg"
   xmlns="http://www.w3.org/2000/svg"
   xmlns:sodipodi="http://sodipodi.sourceforge.net/DTD/sodipodi-0.dtd"
   xmlns:inkscape="http://www.inkscape.org/namespaces/inkscape"
   id="svg4512"
   version="1.1"
   inkscape:version="0.91 r13725"
   xml:space="preserve"
   width="14.233244in"
   height="11.278725in"
   viewBox="0 0 1280.992 1015.0852"
   sodipodi:docname="vel_diff.pdf"><metadata
     id="metadata4518"><rdf:RDF><cc:Work
         rdf:about=""><dc:format>image/svg+xml</dc:format><dc:type
           rdf:resource="http://purl.org/dc/dcmitype/StillImage" /><dc:title></dc:title></cc:Work></rdf:RDF></metadata><defs
     id="defs4516"><clipPath
       clipPathUnits="userSpaceOnUse"
       id="clipPath4690"><path
         d="m 549.168,7886.67 0,-7449.17 9635.832,0 0,7449.17 -9635.832,0 z"
         id="path4692"
         inkscape:connector-curvature="0" /></clipPath><clipPath
       clipPathUnits="userSpaceOnUse"
       id="clipPath4766"><path
         d="m 9260.83,7836.67 0,-400.84 874.97,0 0,400.84 -874.97,0 z"
         id="path4768"
         inkscape:connector-curvature="0" /></clipPath><clipPath
       clipPathUnits="userSpaceOnUse"
       id="clipPath4782"><path
         d="m 9260.83,7836.67 0,-400.84 874.97,0 0,400.84 -874.97,0 z"
         id="path4784"
         inkscape:connector-curvature="0" /></clipPath><clipPath
       clipPathUnits="userSpaceOnUse"
       id="clipPath4798"><path
         d="m 9260.83,7836.67 0,-400.84 874.97,0 0,400.84 -874.97,0 z"
         id="path4800"
         inkscape:connector-curvature="0" /></clipPath></defs><sodipodi:namedview
     pagecolor="#ffffff"
     bordercolor="#666666"
     borderopacity="1"
     objecttolerance="10"
     gridtolerance="10"
     guidetolerance="10"
     inkscape:pageopacity="0"
     inkscape:pageshadow="2"
     inkscape:window-width="1680"
     inkscape:window-height="988"
     id="namedview4514"
     showgrid="false"
     units="in"
     fit-margin-top="0.05"
     fit-margin-right="0.05"
     fit-margin-bottom="0.05"
     fit-margin-left="0.05"
     inkscape:zoom="0.52518798"
     inkscape:cx="514.96872"
     inkscape:cy="529.41451"
     inkscape:window-x="-8"
     inkscape:window-y="-8"
     inkscape:window-maximized="1"
     inkscape:current-layer="g4520" /><g
     id="g4520"
     inkscape:groupmode="layer"
     inkscape:label="vel_diff"
     transform="matrix(1.25,0,0,-1.25,-6.3618164,1021.2419)"><g
       id="g4522"
       transform="scale(0.1,0.1)"><path
         d="m 549.168,438.332 0,7448.338 9635.032,0 0,-7448.338 -9635.032,0"
         style="fill:none;stroke:#ffffff;stroke-width:5;stroke-linecap:butt;stroke-linejoin:round;stroke-miterlimit:10;stroke-dasharray:none;stroke-opacity:1"
         id="path4524"
         inkscape:connector-curvature="0" /><path
         d="m 549.168,438.332 0,7448.338"
         style="fill:none;stroke:#000000;stroke-width:3.33332992;stroke-linecap:butt;stroke-linejoin:round;stroke-miterlimit:10;stroke-dasharray:5, 40;stroke-dashoffset:0;stroke-opacity:1"
         id="path4526"
         inkscape:connector-curvature="0" /><path
         d="m 549.168,7886.67 0,0"
         style="fill:none;stroke:#000000;stroke-width:3.33332992;stroke-linecap:butt;stroke-linejoin:round;stroke-miterlimit:10;stroke-dasharray:5, 40;stroke-dashoffset:0;stroke-opacity:1"
         id="path4528"
         inkscape:connector-curvature="0" /><path
         d="m 3760.83,438.332 0,7448.338"
         style="fill:none;stroke:#000000;stroke-width:3.33332992;stroke-linecap:butt;stroke-linejoin:round;stroke-miterlimit:10;stroke-dasharray:5, 40;stroke-dashoffset:0;stroke-opacity:1"
         id="path4530"
         inkscape:connector-curvature="0" /><path
         d="m 3760.83,7886.67 0,0"
         style="fill:none;stroke:#000000;stroke-width:3.33332992;stroke-linecap:butt;stroke-linejoin:round;stroke-miterlimit:10;stroke-dasharray:5, 40;stroke-dashoffset:0;stroke-opacity:1"
         id="path4532"
         inkscape:connector-curvature="0" /><path
         d="m 6972.5,438.332 0,7448.338"
         style="fill:none;stroke:#000000;stroke-width:3.33332992;stroke-linecap:butt;stroke-linejoin:round;stroke-miterlimit:10;stroke-dasharray:5, 40;stroke-dashoffset:0;stroke-opacity:1"
         id="path4534"
         inkscape:connector-curvature="0" /><path
         d="m 6972.5,7886.67 0,0"
         style="fill:none;stroke:#000000;stroke-width:3.33332992;stroke-linecap:butt;stroke-linejoin:round;stroke-miterlimit:10;stroke-dasharray:5, 40;stroke-dashoffset:0;stroke-opacity:1"
         id="path4536"
         inkscape:connector-curvature="0" /><path
         d="m 10184.2,438.332 0,7448.338"
         style="fill:none;stroke:#000000;stroke-width:3.33332992;stroke-linecap:butt;stroke-linejoin:round;stroke-miterlimit:10;stroke-dasharray:5, 40;stroke-dashoffset:0;stroke-opacity:1"
         id="path4538"
         inkscape:connector-curvature="0" /><path
         d="m 10184.2,7886.67 0,0"
         style="fill:none;stroke:#000000;stroke-width:3.33332992;stroke-linecap:butt;stroke-linejoin:round;stroke-miterlimit:10;stroke-dasharray:5, 40;stroke-dashoffset:0;stroke-opacity:1"
         id="path4540"
         inkscape:connector-curvature="0" /><path
         d="m 549.168,438.332 9635.032,0"
         style="fill:none;stroke:#000000;stroke-width:3.33332992;stroke-linecap:butt;stroke-linejoin:round;stroke-miterlimit:10;stroke-dasharray:5, 40;stroke-dashoffset:0;stroke-opacity:1"
         id="path4542"
         inkscape:connector-curvature="0" /><path
         d="m 10184.2,438.332 0,0"
         style="fill:none;stroke:#000000;stroke-width:3.33332992;stroke-linecap:butt;stroke-linejoin:round;stroke-miterlimit:10;stroke-dasharray:5, 40;stroke-dashoffset:0;stroke-opacity:1"
         id="path4544"
         inkscape:connector-curvature="0" /><path
         d="m 549.168,1928.33 9635.032,0"
         style="fill:none;stroke:#000000;stroke-width:3.33332992;stroke-linecap:butt;stroke-linejoin:round;stroke-miterlimit:10;stroke-dasharray:5, 40;stroke-dashoffset:0;stroke-opacity:1"
         id="path4546"
         inkscape:connector-curvature="0" /><path
         d="m 10184.2,1928.33 0,0"
         style="fill:none;stroke:#000000;stroke-width:3.33332992;stroke-linecap:butt;stroke-linejoin:round;stroke-miterlimit:10;stroke-dasharray:5, 40;stroke-dashoffset:0;stroke-opacity:1"
         id="path4548"
         inkscape:connector-curvature="0" /><path
         d="m 549.168,3418.33 9635.032,0"
         style="fill:none;stroke:#000000;stroke-width:3.33332992;stroke-linecap:butt;stroke-linejoin:round;stroke-miterlimit:10;stroke-dasharray:5, 40;stroke-dashoffset:0;stroke-opacity:1"
         id="path4550"
         inkscape:connector-curvature="0" /><path
         d="m 10184.2,3418.33 0,0"
         style="fill:none;stroke:#000000;stroke-width:3.33332992;stroke-linecap:butt;stroke-linejoin:round;stroke-miterlimit:10;stroke-dasharray:5, 40;stroke-dashoffset:0;stroke-opacity:1"
         id="path4552"
         inkscape:connector-curvature="0" /><path
         d="m 549.168,4907.5 9635.032,0"
         style="fill:none;stroke:#000000;stroke-width:3.33332992;stroke-linecap:butt;stroke-linejoin:round;stroke-miterlimit:10;stroke-dasharray:5, 40;stroke-dashoffset:0;stroke-opacity:1"
         id="path4554"
         inkscape:connector-curvature="0" /><path
         d="m 10184.2,4907.5 0,0"
         style="fill:none;stroke:#000000;stroke-width:3.33332992;stroke-linecap:butt;stroke-linejoin:round;stroke-miterlimit:10;stroke-dasharray:5, 40;stroke-dashoffset:0;stroke-opacity:1"
         id="path4556"
         inkscape:connector-curvature="0" /><path
         d="m 549.168,6397.5 9635.032,0"
         style="fill:none;stroke:#000000;stroke-width:3.33332992;stroke-linecap:butt;stroke-linejoin:round;stroke-miterlimit:10;stroke-dasharray:5, 40;stroke-dashoffset:0;stroke-opacity:1"
         id="path4558"
         inkscape:connector-curvature="0" /><path
         d="m 10184.2,6397.5 0,0"
         style="fill:none;stroke:#000000;stroke-width:3.33332992;stroke-linecap:butt;stroke-linejoin:round;stroke-miterlimit:10;stroke-dasharray:5, 40;stroke-dashoffset:0;stroke-opacity:1"
         id="path4560"
         inkscape:connector-curvature="0" /><path
         d="m 549.168,7886.67 9635.032,0"
         style="fill:none;stroke:#000000;stroke-width:3.33332992;stroke-linecap:butt;stroke-linejoin:round;stroke-miterlimit:10;stroke-dasharray:5, 40;stroke-dashoffset:0;stroke-opacity:1"
         id="path4562"
         inkscape:connector-curvature="0" /><path
         d="m 10184.2,7886.67 0,0"
         style="fill:none;stroke:#000000;stroke-width:3.33332992;stroke-linecap:butt;stroke-linejoin:round;stroke-miterlimit:10;stroke-dasharray:5, 40;stroke-dashoffset:0;stroke-opacity:1"
         id="path4564"
         inkscape:connector-curvature="0" /><path
         d="m 549.168,438.332 9635.032,0"
         style="fill:none;stroke:#000000;stroke-width:5;stroke-linecap:butt;stroke-linejoin:round;stroke-miterlimit:10;stroke-dasharray:none;stroke-opacity:1"
         id="path4566"
         inkscape:connector-curvature="0" /><path
         d="m 549.168,7886.67 9635.032,0"
         style="fill:none;stroke:#000000;stroke-width:5;stroke-linecap:butt;stroke-linejoin:round;stroke-miterlimit:10;stroke-dasharray:none;stroke-opacity:1"
         id="path4568"
         inkscape:connector-curvature="0" /><path
         d="m 549.168,438.332 0,7448.338"
         style="fill:none;stroke:#000000;stroke-width:5;stroke-linecap:butt;stroke-linejoin:round;stroke-miterlimit:10;stroke-dasharray:none;stroke-opacity:1"
         id="path4570"
         inkscape:connector-curvature="0" /><path
         d="m 10184.2,438.332 0,7448.338"
         style="fill:none;stroke:#000000;stroke-width:5;stroke-linecap:butt;stroke-linejoin:round;stroke-miterlimit:10;stroke-dasharray:none;stroke-opacity:1"
         id="path4572"
         inkscape:connector-curvature="0" /><path
         d="m 549.168,438.332 9635.032,0"
         style="fill:none;stroke:#000000;stroke-width:5;stroke-linecap:butt;stroke-linejoin:round;stroke-miterlimit:10;stroke-dasharray:none;stroke-opacity:1"
         id="path4574"
         inkscape:connector-curvature="0" /><path
         d="m 549.168,438.332 0,7448.338"
         style="fill:none;stroke:#000000;stroke-width:5;stroke-linecap:butt;stroke-linejoin:round;stroke-miterlimit:10;stroke-dasharray:none;stroke-opacity:1"
         id="path4576"
         inkscape:connector-curvature="0" /><path
         d="m 549.168,438.332 0,96.668"
         style="fill:none;stroke:#000000;stroke-width:5;stroke-linecap:butt;stroke-linejoin:round;stroke-miterlimit:10;stroke-dasharray:none;stroke-opacity:1"
         id="path4578"
         inkscape:connector-curvature="0" /><path
         d="m 549.168,7886.67 0,-95.84"
         style="fill:none;stroke:#000000;stroke-width:5;stroke-linecap:butt;stroke-linejoin:round;stroke-miterlimit:10;stroke-dasharray:none;stroke-opacity:1"
         id="path4580"
         inkscape:connector-curvature="0" /><g
         id="g4582"
         transform="scale(10,10)"><text
           transform="matrix(1,0,0,-1,52.1668,31.75)"
           style="font-variant:normal;font-weight:normal;font-size:10px;font-family:Helvetica;-inkscape-font-specification:Helvetica;writing-mode:lr-tb;fill:#000000;fill-opacity:1;fill-rule:nonzero;stroke:none"
           id="text4584"><tspan
             x="0"
             y="0"
             id="tspan4586">0</tspan></text>
</g><path
         d="m 3760.83,438.332 0,96.668"
         style="fill:none;stroke:#000000;stroke-width:5;stroke-linecap:butt;stroke-linejoin:round;stroke-miterlimit:10;stroke-dasharray:none;stroke-opacity:1"
         id="path4588"
         inkscape:connector-curvature="0" /><path
         d="m 3760.83,7886.67 0,-95.84"
         style="fill:none;stroke:#000000;stroke-width:5;stroke-linecap:butt;stroke-linejoin:round;stroke-miterlimit:10;stroke-dasharray:none;stroke-opacity:1"
         id="path4590"
         inkscape:connector-curvature="0" /><g
         id="g4592"
         transform="scale(10,10)"><text
           transform="matrix(1,0,0,-1,370.583,31.75)"
           style="font-variant:normal;font-weight:normal;font-size:10px;font-family:Helvetica;-inkscape-font-specification:Helvetica;writing-mode:lr-tb;fill:#000000;fill-opacity:1;fill-rule:nonzero;stroke:none"
           id="text4594"><tspan
             x="0 5.5599999"
             y="0"
             sodipodi:role="line"
             id="tspan4596">50</tspan></text>
</g><path
         d="m 6972.5,438.332 0,96.668"
         style="fill:none;stroke:#000000;stroke-width:5;stroke-linecap:butt;stroke-linejoin:round;stroke-miterlimit:10;stroke-dasharray:none;stroke-opacity:1"
         id="path4598"
         inkscape:connector-curvature="0" /><path
         d="m 6972.5,7886.67 0,-95.84"
         style="fill:none;stroke:#000000;stroke-width:5;stroke-linecap:butt;stroke-linejoin:round;stroke-miterlimit:10;stroke-dasharray:none;stroke-opacity:1"
         id="path4600"
         inkscape:connector-curvature="0" /><g
         id="g4602"
         transform="scale(10,10)"><text
           transform="matrix(1,0,0,-1,688.917,31.75)"
           style="font-variant:normal;font-weight:normal;font-size:10px;font-family:Helvetica;-inkscape-font-specification:Helvetica;writing-mode:lr-tb;fill:#000000;fill-opacity:1;fill-rule:nonzero;stroke:none"
           id="text4604"><tspan
             x="0 5.5599999 11.12"
             y="0"
             sodipodi:role="line"
             id="tspan4606">100</tspan></text>
</g><path
         d="m 10184.2,438.332 0,96.668"
         style="fill:none;stroke:#000000;stroke-width:5;stroke-linecap:butt;stroke-linejoin:round;stroke-miterlimit:10;stroke-dasharray:none;stroke-opacity:1"
         id="path4608"
         inkscape:connector-curvature="0" /><path
         d="m 10184.2,7886.67 0,-95.84"
         style="fill:none;stroke:#000000;stroke-width:5;stroke-linecap:butt;stroke-linejoin:round;stroke-miterlimit:10;stroke-dasharray:none;stroke-opacity:1"
         id="path4610"
         inkscape:connector-curvature="0" /><g
         id="g4612"
         transform="scale(10,10)"><text
           transform="matrix(1,0,0,-1,1010.08,31.75)"
           style="font-variant:normal;font-weight:normal;font-size:10px;font-family:Helvetica;-inkscape-font-specification:Helvetica;writing-mode:lr-tb;fill:#000000;fill-opacity:1;fill-rule:nonzero;stroke:none"
           id="text4614"><tspan
             x="0 5.5599999 11.12"
             y="0"
             sodipodi:role="line"
             id="tspan4616">150</tspan></text>
</g><path
         d="m 549.168,438.332 95.832,0"
         style="fill:none;stroke:#000000;stroke-width:5;stroke-linecap:butt;stroke-linejoin:round;stroke-miterlimit:10;stroke-dasharray:none;stroke-opacity:1"
         id="path4618"
         inkscape:connector-curvature="0" /><path
         d="m 10184.2,438.332 -96.7,0"
         style="fill:none;stroke:#000000;stroke-width:5;stroke-linecap:butt;stroke-linejoin:round;stroke-miterlimit:10;stroke-dasharray:none;stroke-opacity:1"
         id="path4620"
         inkscape:connector-curvature="0" /><g
         id="g4622"
         transform="scale(10,10)"><text
           transform="matrix(1,0,0,-1,40.6668,40.1668)"
           style="font-variant:normal;font-weight:normal;font-size:10px;font-family:Helvetica;-inkscape-font-specification:Helvetica;writing-mode:lr-tb;fill:#000000;fill-opacity:1;fill-rule:nonzero;stroke:none"
           id="text4624"><tspan
             x="0 5.8400002"
             y="0"
             sodipodi:role="line"
             id="tspan4626">−1</tspan></text>
</g><path
         d="m 549.168,1928.33 95.832,0"
         style="fill:none;stroke:#000000;stroke-width:5;stroke-linecap:butt;stroke-linejoin:round;stroke-miterlimit:10;stroke-dasharray:none;stroke-opacity:1"
         id="path4628"
         inkscape:connector-curvature="0" /><path
         d="m 10184.2,1928.33 -96.7,0"
         style="fill:none;stroke:#000000;stroke-width:5;stroke-linecap:butt;stroke-linejoin:round;stroke-miterlimit:10;stroke-dasharray:none;stroke-opacity:1"
         id="path4630"
         inkscape:connector-curvature="0" /><g
         id="g4632"
         transform="scale(10,10)"><text
           transform="matrix(1,0,0,-1,32.3332,189.167)"
           style="font-variant:normal;font-weight:normal;font-size:10px;font-family:Helvetica;-inkscape-font-specification:Helvetica;writing-mode:lr-tb;fill:#000000;fill-opacity:1;fill-rule:nonzero;stroke:none"
           id="text4634"><tspan
             x="0 5.8400002 11.4 14.18"
             y="0"
             sodipodi:role="line"
             id="tspan4636">−0.5</tspan></text>
</g><path
         d="m 549.168,3418.33 95.832,0"
         style="fill:none;stroke:#000000;stroke-width:5;stroke-linecap:butt;stroke-linejoin:round;stroke-miterlimit:10;stroke-dasharray:none;stroke-opacity:1"
         id="path4638"
         inkscape:connector-curvature="0" /><path
         d="m 10184.2,3418.33 -96.7,0"
         style="fill:none;stroke:#000000;stroke-width:5;stroke-linecap:butt;stroke-linejoin:round;stroke-miterlimit:10;stroke-dasharray:none;stroke-opacity:1"
         id="path4640"
         inkscape:connector-curvature="0" /><g
         id="g4642"
         transform="scale(10,10)"><text
           transform="matrix(1,0,0,-1,46.5,338.167)"
           style="font-variant:normal;font-weight:normal;font-size:10px;font-family:Helvetica;-inkscape-font-specification:Helvetica;writing-mode:lr-tb;fill:#000000;fill-opacity:1;fill-rule:nonzero;stroke:none"
           id="text4644"><tspan
             x="0"
             y="0"
             id="tspan4646">0</tspan></text>
</g><path
         d="m 549.168,4907.5 95.832,0"
         style="fill:none;stroke:#000000;stroke-width:5;stroke-linecap:butt;stroke-linejoin:round;stroke-miterlimit:10;stroke-dasharray:none;stroke-opacity:1"
         id="path4648"
         inkscape:connector-curvature="0" /><path
         d="m 10184.2,4907.5 -96.7,0"
         style="fill:none;stroke:#000000;stroke-width:5;stroke-linecap:butt;stroke-linejoin:round;stroke-miterlimit:10;stroke-dasharray:none;stroke-opacity:1"
         id="path4650"
         inkscape:connector-curvature="0" /><g
         id="g4652"
         transform="scale(10,10)"><text
           transform="matrix(1,0,0,-1,38.1668,487.083)"
           style="font-variant:normal;font-weight:normal;font-size:10px;font-family:Helvetica;-inkscape-font-specification:Helvetica;writing-mode:lr-tb;fill:#000000;fill-opacity:1;fill-rule:nonzero;stroke:none"
           id="text4654"><tspan
             x="0 5.5599999 8.3400002"
             y="0"
             sodipodi:role="line"
             id="tspan4656">0.5</tspan></text>
</g><path
         d="m 549.168,6397.5 95.832,0"
         style="fill:none;stroke:#000000;stroke-width:5;stroke-linecap:butt;stroke-linejoin:round;stroke-miterlimit:10;stroke-dasharray:none;stroke-opacity:1"
         id="path4658"
         inkscape:connector-curvature="0" /><path
         d="m 10184.2,6397.5 -96.7,0"
         style="fill:none;stroke:#000000;stroke-width:5;stroke-linecap:butt;stroke-linejoin:round;stroke-miterlimit:10;stroke-dasharray:none;stroke-opacity:1"
         id="path4660"
         inkscape:connector-curvature="0" /><g
         id="g4662"
         transform="scale(10,10)"><text
           transform="matrix(1,0,0,-1,46.5,636.083)"
           style="font-variant:normal;font-weight:normal;font-size:10px;font-family:Helvetica;-inkscape-font-specification:Helvetica;writing-mode:lr-tb;fill:#000000;fill-opacity:1;fill-rule:nonzero;stroke:none"
           id="text4664"><tspan
             x="0"
             y="0"
             id="tspan4666">1</tspan></text>
</g><path
         d="m 549.168,7886.67 95.832,0"
         style="fill:none;stroke:#000000;stroke-width:5;stroke-linecap:butt;stroke-linejoin:round;stroke-miterlimit:10;stroke-dasharray:none;stroke-opacity:1"
         id="path4668"
         inkscape:connector-curvature="0" /><path
         d="m 10184.2,7886.67 -96.7,0"
         style="fill:none;stroke:#000000;stroke-width:5;stroke-linecap:butt;stroke-linejoin:round;stroke-miterlimit:10;stroke-dasharray:none;stroke-opacity:1"
         id="path4670"
         inkscape:connector-curvature="0" /><g
         id="g4672"
         transform="scale(10,10)"><text
           transform="matrix(1,0,0,-1,38.1668,785)"
           style="font-variant:normal;font-weight:normal;font-size:10px;font-family:Helvetica;-inkscape-font-specification:Helvetica;writing-mode:lr-tb;fill:#000000;fill-opacity:1;fill-rule:nonzero;stroke:none"
           id="text4674"><tspan
             x="0 5.5599999 8.3400002"
             y="0"
             sodipodi:role="line"
             id="tspan4676">1.5</tspan></text>
</g><path
         d="m 549.168,438.332 9635.032,0"
         style="fill:none;stroke:#000000;stroke-width:5;stroke-linecap:butt;stroke-linejoin:round;stroke-miterlimit:10;stroke-dasharray:none;stroke-opacity:1"
         id="path4678"
         inkscape:connector-curvature="0" /><path
         d="m 549.168,7886.67 9635.032,0"
         style="fill:none;stroke:#000000;stroke-width:5;stroke-linecap:butt;stroke-linejoin:round;stroke-miterlimit:10;stroke-dasharray:none;stroke-opacity:1"
         id="path4680"
         inkscape:connector-curvature="0" /><path
         d="m 549.168,438.332 0,7448.338"
         style="fill:none;stroke:#000000;stroke-width:5;stroke-linecap:butt;stroke-linejoin:round;stroke-miterlimit:10;stroke-dasharray:none;stroke-opacity:1"
         id="path4682"
         inkscape:connector-curvature="0" /><path
         d="m 10184.2,438.332 0,7448.338"
         style="fill:none;stroke:#000000;stroke-width:5;stroke-linecap:butt;stroke-linejoin:round;stroke-miterlimit:10;stroke-dasharray:none;stroke-opacity:1"
         id="path4684"
         inkscape:connector-curvature="0" /><g
         id="g4686"><g
           id="g4688"
           clip-path="url(#clipPath4690)"><path
             d="m 7004.17,1536.67 32.5,1490 31.66,1489.16 32.5,1490 31.67,1290 32.5,-45 31.67,-142.5 32.5,-238.33 31.66,-398.33 32.5,-522.5 31.67,-445 32.5,-620.84 32.5,-500 31.67,-226.66 32.5,-190.84 31.66,-158.33 32.5,-55.83 31.67,-23.34 32.5,-30 31.67,-34.16 32.5,-61.67 31.66,-91.67 32.5,-91.66 31.67,-68.34 32.5,-35 32.5,-6.66 31.67,10 32.5,16.66 31.66,13.34 32.5,7.5 31.67,10 32.5,12.5 31.67,13.33 32.5,12.5 31.66,10.83 32.5,6.67 31.67,4.17 32.5,1.66 32.5,0 31.67,-0.83 32.5,-0.83 31.66,-0.84 32.5,-0.83 31.67,-0.83 32.5,0 31.67,-0.84 32.5,-0.83 31.66,-0.83 32.5,-0.84 32.5,-0.83 31.67,-1.67 32.5,-0.83 31.67,-0.83 32.5,-0.84 31.66,-1.66 32.5,-0.84 31.67,-140.83 32.5,-324.17 31.67,-380 32.5,1009.17 31.66,273.33 32.5,752.5 32.5,650 31.67,408.34 32.5,172.5 31.67,-30 32.5,-185 31.66,-289.17 32.5,-442.5 31.67,-636.67 32.5,-242.5 31.67,-164.16 32.5,-95 31.66,-55 32.5,-42.5 32.5,-40.84 31.67,-39.16 32.5,-15 31.67,-13.34 32.5,-14.16 31.66,-15 32.5,-15 31.67,-14.17 32.5,-14.17 31.67,-12.5 32.5,-10.83 31.66,-10 32.5,-8.33 32.5,-6.67 31.67,-5.83 32.5,-4.17 31.67,-3.33 32.5,-1.67 31.66,-1.67 32.47,-0.83 95.9,0 32.5,0.83 32.5,0"
             style="fill:none;stroke:#0000ff;stroke-width:60;stroke-linecap:butt;stroke-linejoin:round;stroke-miterlimit:10;stroke-dasharray:none;stroke-opacity:1"
             id="path4694"
             inkscape:connector-curvature="0" /><path
             d="m 3825,4910 31.67,20 32.5,-2.5 31.66,-20 32.5,-104.17 31.67,-200.83 32.5,-272.5 31.67,-299.17 32.5,-272.5 31.66,-131.66 32.5,-20 32.5,-24.17 31.67,-23.33 32.5,-21.67 31.67,-20 32.5,-17.5 31.66,-15 32.5,-12.5 31.67,-10 32.5,-9.17 31.67,-7.5 32.5,-6.66 31.66,-6.67 32.5,-5 32.5,-5 31.67,-3.33 32.5,-31.67 31.67,-63.33 32.5,-68.34 31.66,-51.66 32.5,-86.67 31.67,-15 32.5,5 31.67,17.5 32.5,22.5 31.66,-9.17 32.5,-59.16 32.5,-60 L 5045,1280 l 32.5,1150.83 31.67,1323.34 32.5,139.16 31.66,-2.5 32.5,-87.5 31.67,-114.16 32.5,-105 31.67,-75 32.5,-89.17 32.5,-22.5 31.66,-26.67 32.5,85 31.67,95 32.5,99.17 31.67,80 32.5,44.17 31.66,1.66 32.5,-33.33 31.67,-57.5 32.5,-64.17 31.67,-61.66 32.5,-51.67 32.5,-39.17 31.66,-25.83 32.5,-1.67 31.67,-3.33 32.5,-3.33 31.67,-3.34 32.5,-3.33 31.66,-3.33 32.5,-2.5 31.67,-2.5 32.5,-1.67 31.67,-1.67 32.5,-1.66 32.5,-0.84 31.66,-1.66 32.5,-0.84 31.67,0 32.5,-0.83 289.17,0 31.66,0.83 192.5,0 32.5,-210 31.67,-540.83 32.5,-415.83 32.5,-1020.84 31.67,313.34"
             style="fill:none;stroke:#0000ff;stroke-width:60;stroke-linecap:butt;stroke-linejoin:round;stroke-miterlimit:10;stroke-dasharray:none;stroke-opacity:1"
             id="path4696"
             inkscape:connector-curvature="0" /><path
             d="m 645,1260 32.5,1490 31.668,1490 32.5,-73.33 31.664,106.66 32.5,299.17 31.668,60.83 32.5,-696.66 31.668,-198.34 32.5,-90.83 32.5,-51.67 31.664,-31.66 32.498,-20.84 31.67,-15.83 32.5,-11.67 31.67,-10 32.5,-8.33 31.66,-8.33 32.5,-8.34 31.67,-7.5 32.5,-7.5 31.67,-6.66 32.5,-6.67 32.5,-6.67 31.66,-5 32.5,-106.66 31.67,-178.34 32.5,-195.83 31.67,760 32.5,543.33 31.66,292.5 32.5,105 31.67,98.34 32.5,-122.5 31.67,-216.67 32.5,-235.83 32.5,-232.5 31.66,-195 32.5,-132.5 31.67,-68.34 32.5,-18.33 31.67,4.17 32.5,5 31.66,-0.84 32.5,-8.33 31.67,-12.5 32.5,-15.83 32.5,-17.5 31.67,-18.34 32.5,-18.33 31.66,-5 32.5,-5 31.67,-5 32.5,-5 31.67,-5 32.5,-4.17 31.66,-3.33 32.5,-3.33 31.67,-2.5 32.5,-2.5 32.5,-1.67 31.67,-1.67 32.5,-0.83 31.66,-0.83 225,0 31.67,0.83 129.17,0 31.66,0.83 64.17,0 32.5,-3.33 31.67,-7.5 32.5,-8.33 31.66,-5.84 32.5,-3.33 31.67,-10 32.5,-20 32.5,-6.67 31.67,-31.66 32.5,20.83 31.66,196.67 32.5,140 31.67,194.16 32.5,145 31.67,185.84 32.5,258.33 31.66,85.83 32.5,94.17 32.5,48.33 31.67,87.5 32.5,139.17"
             style="fill:none;stroke:#0000ff;stroke-width:60;stroke-linecap:butt;stroke-linejoin:round;stroke-miterlimit:10;stroke-dasharray:none;stroke-opacity:1"
             id="path4698"
             inkscape:connector-curvature="0" /><path
             d="M 580.832,1928.33 613.332,1157.5 645,1260"
             style="fill:none;stroke:#0000ff;stroke-width:60;stroke-linecap:butt;stroke-linejoin:round;stroke-miterlimit:10;stroke-dasharray:none;stroke-opacity:1"
             id="path4700"
             inkscape:connector-curvature="0" /><path
             d="m 7004.17,1841.67 32.5,1490 31.66,1490 32.5,1489.16 31.67,650.84 32.5,73.33 31.67,-70 32.5,-195 31.66,-404.17 32.5,-490 31.67,-433.33 32.5,-660 32.5,-450 31.67,-220 32.5,-175 31.66,-136.67 32.5,-50.83 31.67,-20 32.5,-27.5 31.67,-30.83 32.5,-114.17 31.66,-25 32.5,-76.67 31.67,240 32.5,188.34 32.5,120 31.67,35.83 32.5,-38.33 31.66,-46.67 32.5,-7.5 31.67,-6.67 32.5,-29.16 31.67,-61.67 32.5,-90 31.66,-104.17 32.5,-102.5 31.67,-87.5 32.5,-13.33 32.5,-5 31.67,-5 32.5,-3.33 31.66,-2.5 32.5,-1.67 31.67,0.83 32.5,0.84 31.67,0.83 32.5,0.83 31.66,0 32.5,0.84 32.5,6.66 31.67,0 32.5,-4.16 31.67,-5.84 32.5,-6.66 31.66,-5.84 32.5,-3.33 31.67,-143.33 32.5,-1876.67 31.67,1077.5 32.5,489.17 31.66,1260 32.5,1255 32.5,419.16 31.67,197.5 32.5,97.5 31.67,-103.33 32.5,-226.67 31.66,-316.66 32.5,-370 31.67,-798.34 32.5,-314.16 31.67,-226.67 32.5,-149.17 31.66,-68.33 32.5,0 32.5,-4.17 31.67,-5.83 32.5,-8.33 31.67,-10.84 32.5,-12.5 31.66,-15 32.5,-16.66 31.67,-18.34 32.5,-18.33 31.67,-17.5 32.5,-17.5 31.66,-15.83 32.5,-14.17 32.5,-12.5 31.67,-10.83 32.5,-8.34 31.67,-7.5 32.5,-5.83 31.66,-4.17 32.47,-2.5 31.7,-2.5 32.5,-0.83 31.7,-0.83 32.5,0.83 32.5,0"
             style="fill:none;stroke:#ff0000;stroke-width:60;stroke-linecap:butt;stroke-linejoin:round;stroke-miterlimit:10;stroke-dasharray:none;stroke-opacity:1"
             id="path4702"
             inkscape:connector-curvature="0" /><path
             d="m 3825,4921.67 31.67,14.16 32.5,-10.83 31.66,-31.67 32.5,-119.16 31.67,-219.17 32.5,-291.67 31.67,-319.16 32.5,-273.34 31.66,-7.5 32.5,-15.83 32.5,-18.33 31.67,-299.17 32.5,272.5 31.67,-5.83 32.5,-3.34 31.66,-2.5 32.5,-3.33 31.67,-5 32.5,-7.5 31.67,-9.17 32.5,-11.66 31.66,-12.5 32.5,-13.34 32.5,-14.16 31.67,-13.34 32.5,-42.5 31.67,-69.16 32.5,-59.17 31.66,290 32.5,293.33 31.67,215 32.5,105.84 31.67,4.16 32.5,-72.5 31.66,-200.83 32.5,-104.17 32.5,94.17 31.67,176.67 32.5,150.83 31.67,62.5 32.5,-40.83 31.66,-125.84 32.5,-179.16 31.67,-194.17 32.5,-178.33 31.67,-129.17 32.5,-18.33 32.5,-34.17 31.66,-32.5 32.5,77.5 31.67,175.83 32.5,138.34 31.67,80 32.5,21.66 31.66,-23.33 32.5,-55.83 31.67,-72.5 32.5,-79.17 31.67,-76.67 32.5,-69.16 32.5,-53.34 31.66,-9.16 32.5,-10.84 31.67,-10 32.5,-10 31.67,-9.16 32.5,-7.5 31.66,-6.67 32.5,-5 31.67,-3.33 32.5,-3.34 31.67,-1.66 32.5,-1.67 32.5,0 31.66,-0.83 64.17,0 32.5,0.83 31.67,0 32.5,0.83 31.66,0.84 32.5,0 31.67,0.83 32.5,0 31.67,0.83 32.5,0 32.5,0.84 128.33,0 31.67,0.83 64.16,0 32.5,-210.83 31.67,-530 32.5,-634.17 32.5,-648.33 31.67,462.5"
             style="fill:none;stroke:#ff0000;stroke-width:60;stroke-linecap:butt;stroke-linejoin:round;stroke-miterlimit:10;stroke-dasharray:none;stroke-opacity:1"
             id="path4704"
             inkscape:connector-curvature="0" /><path
             d="m 645,1141.67 32.5,1490 31.668,579.16 32.5,-523.33 31.664,-128.33 32.5,426.66 31.668,417.5 32.5,386.67 31.668,271.67 32.5,127.5 32.5,38.33 31.664,-10 32.498,-16.67 31.67,-166.66 32.5,-114.17 31.67,-22.5 32.5,-23.33 31.66,-25.84 32.5,-27.5 31.67,-30 32.5,-32.5 31.67,-35 32.5,-35.83 32.5,-35 31.66,-35 32.5,-300 31.67,-145.83 32.5,-142.5 31.67,504.16 32.5,516.67 31.66,385.83 32.5,192.5 31.67,10.84 32.5,-129.17 31.67,-216.67 32.5,-253.33 32.5,-244.17 31.66,-197.5 32.5,-128.33 31.67,-30.83 32.5,12.5 31.67,13.33 32.5,15 31.66,63.33 32.5,54.17 31.67,28.33 32.5,4.17 32.5,-12.5 31.67,-23.33 32.5,-30 31.66,-32.5 32.5,-22.5 31.67,-10.84 32.5,-12.5 31.67,-11.66 32.5,-12.5 31.66,-11.67 32.5,-10 31.67,-9.17 32.5,-8.33 32.5,-7.5 31.67,-5.83 32.5,-4.17 31.66,-3.33 32.5,-2.5 31.67,-2.5 32.5,-0.84 31.67,-0.83 64.16,0 32.5,0.83 31.67,0.84 32.5,0 32.5,0.83 31.67,0.83 32.5,0.84 31.66,0.83 32.5,0 31.67,0.83 32.5,-3.33 31.67,-6.67 32.5,-7.5 31.66,-4.16 32.5,-3.34 31.67,-11.66 32.5,-20.84 32.5,75 31.67,23.34 32.5,64.16 31.66,169.17 32.5,73.33 31.67,130 32.5,129.17 31.67,195 32.5,268.33 31.66,90.84 32.5,94.16 32.5,46.67 31.67,84.17 32.5,135"
             style="fill:none;stroke:#ff0000;stroke-width:60;stroke-linecap:butt;stroke-linejoin:round;stroke-miterlimit:10;stroke-dasharray:none;stroke-opacity:1"
             id="path4706"
             inkscape:connector-curvature="0" /><path
             d="M 580.832,1928.33 613.332,1157.5 645,1141.67"
             style="fill:none;stroke:#ff0000;stroke-width:60;stroke-linecap:butt;stroke-linejoin:round;stroke-miterlimit:10;stroke-dasharray:none;stroke-opacity:1"
             id="path4708"
             inkscape:connector-curvature="0" /><path
             d="m 7004.17,830 32.5,315.83 31.66,943.34 32.5,891.66 31.67,716.67 32.5,628.33 31.67,504.17 32.5,374.17 31.66,251.66 32.5,142.5 31.67,50.84 32.5,-23.34 32.5,-79.16 31.67,-890 32.5,-740.84 31.66,-120 32.5,-44.16 31.67,-23.34 32.5,-30 31.67,-34.16 32.5,-61.67 31.66,-91.67 32.5,-91.66 31.67,9.16 32.5,126.67 32.5,75 31.67,22.5 32.5,-8.33 31.66,-33.34 32.5,-19.16 31.67,0 32.5,1.66 31.67,-8.33 32.5,-20 31.66,-29.17 32.5,-32.5 31.67,-29.16 32.5,-22.5 32.5,-14.17 31.67,-6.67 32.5,-2.5 31.66,-0.83 32.5,0.83 31.67,0.84 32.5,0.83 31.67,-0.83 32.5,-0.84 31.66,-0.83 32.5,-2.5 32.5,-1.67 31.67,-1.66 32.5,-2.5 31.67,-0.84 32.5,-1.66 31.66,-0.84 32.5,0 31.67,-143.33 32.5,-324.17 31.67,-399.16 32.5,-356.67 31.66,-218.33 32.5,-45 32.5,110.83 31.67,215 32.5,259.17 31.67,258.33 32.5,231.67 31.66,189.16 32.5,143.34 31.67,101.66 32.5,65.84 31.67,40 32.5,21.66 31.66,10.84 32.5,-603.34 32.5,602.5 31.67,-8.33 32.5,-10.83 31.67,-13.34 32.5,-14.16 31.66,-15 32.5,-15 31.67,-14.17 32.5,-14.17 31.67,-12.5 32.5,-10.83 31.66,-10 32.5,-8.33 32.5,-6.67 31.67,-5.83 32.5,1490 31.67,-1497.5 32.5,42.5 31.66,-45.84 32.47,-0.83 95.9,0 32.5,0.83 32.5,0"
             style="fill:none;stroke:#000000;stroke-width:60;stroke-linecap:butt;stroke-linejoin:round;stroke-miterlimit:10;stroke-dasharray:none;stroke-opacity:1"
             id="path4710"
             inkscape:connector-curvature="0" /><path
             d="m 3825,3942.5 31.67,49.17 32.5,34.16 31.66,59.17 32.5,24.17 31.67,-37.5 32.5,-94.17 31.67,-130.83 32.5,-135.84 31.66,-84.16 32.5,-20 32.5,-24.17 31.67,-23.33 32.5,-21.67 31.67,-20 32.5,-17.5 31.66,-15 32.5,-12.5 31.67,-10 32.5,-9.17 31.67,-7.5 32.5,-6.66 31.66,-6.67 32.5,-5 32.5,-5 31.67,-3.33 32.5,-31.67 31.67,-63.33 32.5,-68.34 31.66,65 32.5,128.34 31.67,110.83 32.5,66.67 31.67,26.66 32.5,-4.16 31.66,-170.84 32.5,-171.66 32.5,-10.84 31.67,90.84 32.5,120 31.67,100 32.5,54.16 31.66,7.5 32.5,-29.16 31.67,-47.5 32.5,-50.84 31.67,-40.83 32.5,-80 32.5,-22.5 31.66,-26.67 32.5,4.17 31.67,45 32.5,59.17 31.67,57.5 32.5,42.5 31.66,20 32.5,-2.5 31.67,-20 32.5,-29.17 31.67,-30.83 32.5,-28.34 32.5,-23.33 31.66,-17.5 32.5,-6.67 31.67,-3.33 32.5,-3.33 31.67,-3.34 32.5,-3.33 31.66,-3.33 32.5,-2.5 31.67,-2.5 32.5,-1.67 31.67,-1.67 32.5,-1.66 32.5,-0.84 31.66,-0.83 32.5,1.67 31.67,0 32.5,0.83 31.67,0.83 32.5,0 31.66,0.84 32.5,0 31.67,0.83 64.17,0 32.5,0.83 256.66,0 32.5,-217.5 31.67,-506.66 32.5,-692.5 32.5,-775.84 31.67,-395.83"
             style="fill:none;stroke:#000000;stroke-width:60;stroke-linecap:butt;stroke-linejoin:round;stroke-miterlimit:10;stroke-dasharray:none;stroke-opacity:1"
             id="path4712"
             inkscape:connector-curvature="0" /><path
             d="m 645,856.668 32.5,955.002 31.668,1140 32.5,223.33 31.664,65.83 32.5,147.5 31.668,98.34 32.5,16.66 31.668,-8.33 32.5,-9.17 32.5,-5.83 31.664,-4.17 32.498,-2.5 31.67,-2.5 32.5,-1.66 31.67,-2.5 32.5,-1.67 31.66,-3.33 32.5,-3.34 31.67,-3.33 32.5,-4.17 31.67,-3.33 32.5,-4.17 32.5,-4.16 31.66,-3.34 32.5,-101.66 31.67,-178.34 32.5,-195.83 31.67,-133.33 32.5,-50 31.66,19.16 32.5,70.84 31.67,101.66 32.5,110.84 31.67,102.5 32.5,85.83 32.5,65 31.66,45 32.5,29.17 31.67,19.16 32.5,13.34 31.67,9.16 32.5,6.67 31.66,4.17 32.5,2.5 31.67,0.83 32.5,0 32.5,-1.67 31.67,-3.33 32.5,-3.33 31.66,-4.17 32.5,-5 31.67,-5 32.5,-5 31.67,-5 32.5,-4.17 31.66,-3.33 32.5,-3.33 31.67,-2.5 32.5,-2.5 32.5,-1.67 31.67,-1.67 32.5,-0.83 31.66,-0.83 225,0 31.67,0.83 129.17,0 31.66,0.83 64.17,0 32.5,-3.33 31.67,-7.5 32.5,-8.33 31.66,-5.84 32.5,-3.33 31.67,-10 32.5,-20 32.5,-20.83 31.67,-38.34 32.5,-25 31.66,240.84 32.5,90.83 31.67,41.67 32.5,-25 31.67,11.66 32.5,118.34 31.66,8.33 32.5,20 32.5,-4.17 31.67,38.34 32.5,133.33"
             style="fill:none;stroke:#000000;stroke-width:60;stroke-linecap:butt;stroke-linejoin:round;stroke-miterlimit:10;stroke-dasharray:none;stroke-opacity:1"
             id="path4714"
             inkscape:connector-curvature="0" /><path
             d="M 580.832,1928.33 613.332,825 645,856.668"
             style="fill:none;stroke:#000000;stroke-width:60;stroke-linecap:butt;stroke-linejoin:round;stroke-miterlimit:10;stroke-dasharray:none;stroke-opacity:1"
             id="path4716"
             inkscape:connector-curvature="0" /></g></g><g
         id="g4718"
         transform="scale(10,10)"><text
           transform="matrix(1,0,0,-1,493.25,12.5)"
           style="font-variant:normal;font-weight:normal;font-size:20px;font-family:Helvetica;-inkscape-font-specification:Helvetica;writing-mode:lr-tb;fill:#000000;fill-opacity:1;fill-rule:nonzero;stroke:none"
           id="text4720"><tspan
             x="0 12.22 16.66 33.32 44.439999 50 60 71.120003 81.120003"
             y="0"
             sodipodi:role="line"
             id="tspan4722">Time[sec]</tspan></text>
<text
           transform="matrix(0,1,1,0,23.25,362.833)"
           style="font-variant:normal;font-weight:normal;font-size:20px;font-family:Helvetica;-inkscape-font-specification:Helvetica;writing-mode:lr-tb;fill:#000000;fill-opacity:1;fill-rule:nonzero;stroke:none"
           id="text4724"><tspan
             x="0 13.34 24.459999 35.580002 46.700001 57.82 63.380001 68.940002 85.599998 91.160004 101.16"
             y="0"
             sodipodi:role="line"
             id="tspan4726">Speed [m/s]</tspan></text>
<text
           transform="matrix(1,0,0,-1,456,798.833)"
           style="font-variant:normal;font-weight:normal;font-size:20px;font-family:Helvetica;-inkscape-font-specification:Helvetica;writing-mode:lr-tb;fill:#000000;fill-opacity:1;fill-rule:nonzero;stroke:none"
           id="text4728"><tspan
             x="0 13.34 24.459999 28.9 40.02 50.02 54.459999 60.02 70.019997 75.580002 86.699997 91.139999 96.699997 102.26 113.38 120.04 131.16 142.28 152.28"
             y="0"
             sodipodi:role="line"
             id="tspan4730">Velocity difference</tspan></text>
</g><path
         d="m 9260.83,7436.67 874.168,0 0,400 -874.168,0 0,-400 z"
         style="fill:#ffffff;fill-opacity:1;fill-rule:evenodd;stroke:none"
         id="path4732"
         inkscape:connector-curvature="0" /><path
         d="m 9260.83,7436.67 0,400 874.17,0 0,-400 -874.17,0"
         style="fill:none;stroke:#ffffff;stroke-width:5;stroke-linecap:butt;stroke-linejoin:round;stroke-miterlimit:10;stroke-dasharray:none;stroke-opacity:1"
         id="path4734"
         inkscape:connector-curvature="0" /><path
         d="m 9260.83,7436.67 874.17,0"
         style="fill:none;stroke:#000000;stroke-width:5;stroke-linecap:butt;stroke-linejoin:round;stroke-miterlimit:10;stroke-dasharray:none;stroke-opacity:1"
         id="path4736"
         inkscape:connector-curvature="0" /><path
         d="m 9260.83,7836.67 874.17,0"
         style="fill:none;stroke:#000000;stroke-width:5;stroke-linecap:butt;stroke-linejoin:round;stroke-miterlimit:10;stroke-dasharray:none;stroke-opacity:1"
         id="path4738"
         inkscape:connector-curvature="0" /><path
         d="m 9260.83,7436.67 0,400"
         style="fill:none;stroke:#000000;stroke-width:5;stroke-linecap:butt;stroke-linejoin:round;stroke-miterlimit:10;stroke-dasharray:none;stroke-opacity:1"
         id="path4740"
         inkscape:connector-curvature="0" /><path
         d="m 10135,7436.67 0,400"
         style="fill:none;stroke:#000000;stroke-width:5;stroke-linecap:butt;stroke-linejoin:round;stroke-miterlimit:10;stroke-dasharray:none;stroke-opacity:1"
         id="path4742"
         inkscape:connector-curvature="0" /><path
         d="m 9260.83,7436.67 874.17,0"
         style="fill:none;stroke:#000000;stroke-width:5;stroke-linecap:butt;stroke-linejoin:round;stroke-miterlimit:10;stroke-dasharray:none;stroke-opacity:1"
         id="path4744"
         inkscape:connector-curvature="0" /><path
         d="m 9260.83,7436.67 0,400"
         style="fill:none;stroke:#000000;stroke-width:5;stroke-linecap:butt;stroke-linejoin:round;stroke-miterlimit:10;stroke-dasharray:none;stroke-opacity:1"
         id="path4746"
         inkscape:connector-curvature="0" /><path
         d="m 9260.83,7436.67 874.17,0"
         style="fill:none;stroke:#000000;stroke-width:5;stroke-linecap:butt;stroke-linejoin:round;stroke-miterlimit:10;stroke-dasharray:none;stroke-opacity:1"
         id="path4748"
         inkscape:connector-curvature="0" /><path
         d="m 9260.83,7836.67 874.17,0"
         style="fill:none;stroke:#000000;stroke-width:5;stroke-linecap:butt;stroke-linejoin:round;stroke-miterlimit:10;stroke-dasharray:none;stroke-opacity:1"
         id="path4750"
         inkscape:connector-curvature="0" /><path
         d="m 9260.83,7436.67 0,400"
         style="fill:none;stroke:#000000;stroke-width:5;stroke-linecap:butt;stroke-linejoin:round;stroke-miterlimit:10;stroke-dasharray:none;stroke-opacity:1"
         id="path4752"
         inkscape:connector-curvature="0" /><path
         d="m 10135,7436.67 0,400"
         style="fill:none;stroke:#000000;stroke-width:5;stroke-linecap:butt;stroke-linejoin:round;stroke-miterlimit:10;stroke-dasharray:none;stroke-opacity:1"
         id="path4754"
         inkscape:connector-curvature="0" /><g
         id="g4756"
         transform="scale(10,10)"><text
           transform="matrix(1,0,0,-1,965.333,772.5)"
           style="font-variant:normal;font-weight:normal;font-size:10px;font-family:Helvetica;-inkscape-font-specification:Helvetica;writing-mode:lr-tb;fill:#000000;fill-opacity:1;fill-rule:nonzero;stroke:none"
           id="text4758"><tspan
             x="0 2.78 11.11 19.440001 25.280001 32.5 39.169998"
             y="0"
             sodipodi:role="line"
             id="tspan4760">IMM−UKF</tspan></text>
</g><g
         id="g4762"><g
           id="g4764"
           clip-path="url(#clipPath4766)"><path
             d="m 9320.83,7760.83 301.67,0"
             style="fill:none;stroke:#0000ff;stroke-width:60;stroke-linecap:butt;stroke-linejoin:round;stroke-miterlimit:10;stroke-dasharray:none;stroke-opacity:1"
             id="path4770"
             inkscape:connector-curvature="0" /></g></g><g
         id="g4772"
         transform="scale(10,10)"><text
           transform="matrix(1,0,0,-1,965.333,760.083)"
           style="font-variant:normal;font-weight:normal;font-size:10px;font-family:Helvetica;-inkscape-font-specification:Helvetica;writing-mode:lr-tb;fill:#000000;fill-opacity:1;fill-rule:nonzero;stroke:none"
           id="text4774"><tspan
             x="0 7.2199998 13.89"
             y="0"
             sodipodi:role="line"
             id="tspan4776">UKF</tspan></text>
</g><g
         id="g4778"><g
           id="g4780"
           clip-path="url(#clipPath4782)"><path
             d="m 9320.83,7636.67 301.67,0"
             style="fill:none;stroke:#ff0000;stroke-width:60;stroke-linecap:butt;stroke-linejoin:round;stroke-miterlimit:10;stroke-dasharray:none;stroke-opacity:1"
             id="path4786"
             inkscape:connector-curvature="0" /></g></g><g
         id="g4788"
         transform="scale(10,10)"><text
           transform="matrix(1,0,0,-1,965.333,747.75)"
           style="font-variant:normal;font-weight:normal;font-size:10px;font-family:Helvetica;-inkscape-font-specification:Helvetica;writing-mode:lr-tb;fill:#000000;fill-opacity:1;fill-rule:nonzero;stroke:none"
           id="text4790"><tspan
             x="0 7.2199998 15"
             y="0"
             sodipodi:role="line"
             id="tspan4792">NOP</tspan></text>
</g><g
         id="g4794"><g
           id="g4796"
           clip-path="url(#clipPath4798)"><path
             d="m 9320.83,7513.33 301.67,0"
             style="fill:none;stroke:#000000;stroke-width:60;stroke-linecap:butt;stroke-linejoin:round;stroke-miterlimit:10;stroke-dasharray:none;stroke-opacity:1"
             id="path4802"
             inkscape:connector-curvature="0" /></g></g></g></g></svg>