<?xml version="1.0" encoding="UTF-8" standalone="no"?>
<!-- Created with Inkscape (http://www.inkscape.org/) -->

<svg
   xmlns:dc="http://purl.org/dc/elements/1.1/"
   xmlns:cc="http://creativecommons.org/ns#"
   xmlns:rdf="http://www.w3.org/1999/02/22-rdf-syntax-ns#"
   xmlns:svg="http://www.w3.org/2000/svg"
   xmlns="http://www.w3.org/2000/svg"
   xmlns:sodipodi="http://sodipodi.sourceforge.net/DTD/sodipodi-0.dtd"
   xmlns:inkscape="http://www.inkscape.org/namespaces/inkscape"
   id="svg5270"
   version="1.1"
   inkscape:version="0.91 r13725"
   xml:space="preserve"
   width="16.066393in"
   height="12.041885in"
   viewBox="0 0 1445.9753 1083.7697"
   sodipodi:docname="vel_diff.svg"><metadata
     id="metadata5276"><rdf:RDF><cc:Work
         rdf:about=""><dc:format>image/svg+xml</dc:format><dc:type
           rdf:resource="http://purl.org/dc/dcmitype/StillImage" /><dc:title></dc:title></cc:Work></rdf:RDF></metadata><defs
     id="defs5274"><clipPath
       clipPathUnits="userSpaceOnUse"
       id="clipPath5286"><path
         d="m 0,0 14670,0 0,10478.6 -14670,0 L 0,0 Z"
         id="path5288"
         inkscape:connector-curvature="0" /></clipPath><clipPath
       clipPathUnits="userSpaceOnUse"
       id="clipPath5456"><path
         d="m 535.301,8478.71 0,-8059.569 10735.299,0 0,8059.569 -10735.299,0 z"
         id="path5458"
         inkscape:connector-curvature="0" /></clipPath><clipPath
       clipPathUnits="userSpaceOnUse"
       id="clipPath5488"><path
         d="m 0,0 0,10479 14670,0 L 14670,0 0,0 Z"
         id="path5490"
         inkscape:connector-curvature="0" /></clipPath><clipPath
       clipPathUnits="userSpaceOnUse"
       id="clipPath5536"><path
         d="m 11879,9551.75 0,-691.27 1187.5,0 0,691.27 -1187.5,0 z"
         id="path5538"
         inkscape:connector-curvature="0" /></clipPath><clipPath
       clipPathUnits="userSpaceOnUse"
       id="clipPath5546"><path
         d="m 0,0 0,10479 14670,0 L 14670,0 0,0 Z"
         id="path5548"
         inkscape:connector-curvature="0" /></clipPath><clipPath
       clipPathUnits="userSpaceOnUse"
       id="clipPath5560"><path
         d="m 11879,9551.75 0,-691.27 1187.5,0 0,691.27 -1187.5,0 z"
         id="path5562"
         inkscape:connector-curvature="0" /></clipPath><clipPath
       clipPathUnits="userSpaceOnUse"
       id="clipPath5570"><path
         d="m 0,0 0,10479 14670,0 L 14670,0 0,0 Z"
         id="path5572"
         inkscape:connector-curvature="0" /></clipPath><clipPath
       clipPathUnits="userSpaceOnUse"
       id="clipPath5584"><path
         d="m 11879,9551.75 0,-691.27 1187.5,0 0,691.27 -1187.5,0 z"
         id="path5586"
         inkscape:connector-curvature="0" /></clipPath></defs><sodipodi:namedview
     pagecolor="#ffffff"
     bordercolor="#666666"
     borderopacity="1"
     objecttolerance="10"
     gridtolerance="10"
     guidetolerance="10"
     inkscape:pageopacity="0"
     inkscape:pageshadow="2"
     inkscape:window-width="1680"
     inkscape:window-height="988"
     id="namedview5272"
     showgrid="false"
     inkscape:zoom="0.46758317"
     inkscape:cx="1064.2042"
     inkscape:cy="505.11329"
     inkscape:window-x="-8"
     inkscape:window-y="-8"
     inkscape:window-maximized="1"
     inkscape:current-layer="g5278"
     units="in"
     fit-margin-top="0.01"
     fit-margin-right="0.01"
     fit-margin-bottom="0.01"
     fit-margin-left="0.01" /><g
     id="g5278"
     inkscape:groupmode="layer"
     inkscape:label="vel_diff "
     transform="matrix(1.25,0,0,-1.25,-9.9617204,1092.5887)"><path
       inkscape:connector-curvature="0"
       id="path5290"
       style="fill:none;stroke:#ffffff;stroke-width:0.49999803;stroke-linecap:butt;stroke-linejoin:round;stroke-miterlimit:10;stroke-dasharray:none;stroke-opacity:1"
       d="m 54.91653,43.082978 0,826.747882 1101.24197,0 0,-826.747882 -1101.24197,0" /><path
       inkscape:connector-curvature="0"
       id="path5292"
       style="fill:none;stroke:#000000;stroke-width:0.33333236;stroke-linecap:butt;stroke-linejoin:round;stroke-miterlimit:10;stroke-dasharray:0.49999801, 3.9999841;stroke-dashoffset:0;stroke-opacity:1"
       d="m 54.91653,43.082978 0,826.747882" /><path
       inkscape:connector-curvature="0"
       id="path5294"
       style="fill:none;stroke:#000000;stroke-width:0.33333236;stroke-linecap:butt;stroke-linejoin:round;stroke-miterlimit:10;stroke-dasharray:0.49999801, 3.9999841;stroke-dashoffset:0;stroke-opacity:1"
       d="m 54.91653,869.83086 0,0" /><path
       inkscape:connector-curvature="0"
       id="path5296"
       style="fill:none;stroke:#000000;stroke-width:0.33333236;stroke-linecap:butt;stroke-linejoin:round;stroke-miterlimit:10;stroke-dasharray:0.49999801, 3.9999841;stroke-dashoffset:0;stroke-opacity:1"
       d="m 421.99884,43.082978 0,826.747882" /><path
       inkscape:connector-curvature="0"
       id="path5298"
       style="fill:none;stroke:#000000;stroke-width:0.33333236;stroke-linecap:butt;stroke-linejoin:round;stroke-miterlimit:10;stroke-dasharray:0.49999801, 3.9999841;stroke-dashoffset:0;stroke-opacity:1"
       d="m 421.99884,869.83086 0,0" /><path
       inkscape:connector-curvature="0"
       id="path5300"
       style="fill:none;stroke:#000000;stroke-width:0.33333236;stroke-linecap:butt;stroke-linejoin:round;stroke-miterlimit:10;stroke-dasharray:0.49999801, 3.9999841;stroke-dashoffset:0;stroke-opacity:1"
       d="m 789.08124,43.082978 0,826.747882" /><path
       inkscape:connector-curvature="0"
       id="path5302"
       style="fill:none;stroke:#000000;stroke-width:0.33333236;stroke-linecap:butt;stroke-linejoin:round;stroke-miterlimit:10;stroke-dasharray:0.49999801, 3.9999841;stroke-dashoffset:0;stroke-opacity:1"
       d="m 789.08124,869.83086 0,0" /><path
       inkscape:connector-curvature="0"
       id="path5304"
       style="fill:none;stroke:#000000;stroke-width:0.33333236;stroke-linecap:butt;stroke-linejoin:round;stroke-miterlimit:10;stroke-dasharray:0.49999801, 3.9999841;stroke-dashoffset:0;stroke-opacity:1"
       d="m 1156.1585,43.082978 0,826.747882" /><path
       inkscape:connector-curvature="0"
       id="path5308"
       style="fill:none;stroke:#000000;stroke-width:0.33333236;stroke-linecap:butt;stroke-linejoin:round;stroke-miterlimit:10;stroke-dasharray:0.49999801, 3.9999841;stroke-dashoffset:0;stroke-opacity:1"
       d="m 54.91653,43.082978 1101.24197,0" /><path
       inkscape:connector-curvature="0"
       id="path5310"
       style="fill:none;stroke:#000000;stroke-width:0.33333236;stroke-linecap:butt;stroke-linejoin:round;stroke-miterlimit:10;stroke-dasharray:0.49999801, 3.9999841;stroke-dashoffset:0;stroke-opacity:1"
       d="m 1156.1585,43.082978 0,0" /><path
       inkscape:connector-curvature="0"
       id="path5312"
       style="fill:none;stroke:#000000;stroke-width:0.33333236;stroke-linecap:butt;stroke-linejoin:round;stroke-miterlimit:10;stroke-dasharray:0.49999801, 3.9999841;stroke-dashoffset:0;stroke-opacity:1"
       d="m 54.91653,208.49879 1101.24197,0" /><path
       inkscape:connector-curvature="0"
       id="path5314"
       style="fill:none;stroke:#000000;stroke-width:0.33333236;stroke-linecap:butt;stroke-linejoin:round;stroke-miterlimit:10;stroke-dasharray:0.49999801, 3.9999841;stroke-dashoffset:0;stroke-opacity:1"
       d="m 1156.1585,208.49879 0,0" /><path
       inkscape:connector-curvature="0"
       id="path5316"
       style="fill:none;stroke:#000000;stroke-width:0.33333236;stroke-linecap:butt;stroke-linejoin:round;stroke-miterlimit:10;stroke-dasharray:0.49999801, 3.9999841;stroke-dashoffset:0;stroke-opacity:1"
       d="m 54.91653,373.8318 1101.24197,0" /><path
       inkscape:connector-curvature="0"
       id="path5318"
       style="fill:none;stroke:#000000;stroke-width:0.33333236;stroke-linecap:butt;stroke-linejoin:round;stroke-miterlimit:10;stroke-dasharray:0.49999801, 3.9999841;stroke-dashoffset:0;stroke-opacity:1"
       d="m 1156.1585,373.8318 0,0" /><path
       inkscape:connector-curvature="0"
       id="path5320"
       style="fill:none;stroke:#000000;stroke-width:0.33333236;stroke-linecap:butt;stroke-linejoin:round;stroke-miterlimit:10;stroke-dasharray:0.49999801, 3.9999841;stroke-dashoffset:0;stroke-opacity:1"
       d="m 54.91653,539.16482 1101.24197,0" /><path
       inkscape:connector-curvature="0"
       id="path5322"
       style="fill:none;stroke:#000000;stroke-width:0.33333236;stroke-linecap:butt;stroke-linejoin:round;stroke-miterlimit:10;stroke-dasharray:0.49999801, 3.9999841;stroke-dashoffset:0;stroke-opacity:1"
       d="m 1156.1585,539.16482 0,0" /><path
       inkscape:connector-curvature="0"
       id="path5324"
       style="fill:none;stroke:#000000;stroke-width:0.33333236;stroke-linecap:butt;stroke-linejoin:round;stroke-miterlimit:10;stroke-dasharray:0.49999801, 3.9999841;stroke-dashoffset:0;stroke-opacity:1"
       d="m 54.91653,704.49784 1101.24197,0" /><path
       inkscape:connector-curvature="0"
       id="path5326"
       style="fill:none;stroke:#000000;stroke-width:0.33333236;stroke-linecap:butt;stroke-linejoin:round;stroke-miterlimit:10;stroke-dasharray:0.49999801, 3.9999841;stroke-dashoffset:0;stroke-opacity:1"
       d="m 1156.1585,704.49784 0,0" /><path
       inkscape:connector-curvature="0"
       id="path5328"
       style="fill:none;stroke:#000000;stroke-width:0.33333236;stroke-linecap:butt;stroke-linejoin:round;stroke-miterlimit:10;stroke-dasharray:0.49999801, 3.9999841;stroke-dashoffset:0;stroke-opacity:1"
       d="m 54.91653,869.83086 1101.24197,0" /><path
       inkscape:connector-curvature="0"
       id="path5332"
       style="fill:none;stroke:#000000;stroke-width:0.49999803;stroke-linecap:butt;stroke-linejoin:round;stroke-miterlimit:10;stroke-dasharray:none;stroke-opacity:1"
       d="m 54.91653,43.082978 1101.24197,0" /><path
       inkscape:connector-curvature="0"
       id="path5334"
       style="fill:none;stroke:#000000;stroke-width:0.49999803;stroke-linecap:butt;stroke-linejoin:round;stroke-miterlimit:10;stroke-dasharray:none;stroke-opacity:1"
       d="m 54.91653,869.83086 1101.24197,0" /><path
       inkscape:connector-curvature="0"
       id="path5336"
       style="fill:none;stroke:#000000;stroke-width:0.49999803;stroke-linecap:butt;stroke-linejoin:round;stroke-miterlimit:10;stroke-dasharray:none;stroke-opacity:1"
       d="m 54.91653,43.082978 0,826.747882" /><path
       inkscape:connector-curvature="0"
       id="path5338"
       style="fill:none;stroke:#000000;stroke-width:0.49999803;stroke-linecap:butt;stroke-linejoin:round;stroke-miterlimit:10;stroke-dasharray:none;stroke-opacity:1"
       d="m 1156.1585,43.082978 0,826.747882" /><path
       inkscape:connector-curvature="0"
       id="path5340"
       style="fill:none;stroke:#000000;stroke-width:0.49999803;stroke-linecap:butt;stroke-linejoin:round;stroke-miterlimit:10;stroke-dasharray:none;stroke-opacity:1"
       d="m 54.91653,43.082978 1101.24197,0" /><path
       inkscape:connector-curvature="0"
       id="path5342"
       style="fill:none;stroke:#000000;stroke-width:0.49999803;stroke-linecap:butt;stroke-linejoin:round;stroke-miterlimit:10;stroke-dasharray:none;stroke-opacity:1"
       d="m 54.91653,43.082978 0,826.747882" /><path
       inkscape:connector-curvature="0"
       id="path5344"
       style="fill:none;stroke:#000000;stroke-width:0.49999803;stroke-linecap:butt;stroke-linejoin:round;stroke-miterlimit:10;stroke-dasharray:none;stroke-opacity:1"
       d="m 54.91653,43.082978 0,11.083311" /><path
       inkscape:connector-curvature="0"
       id="path5346"
       style="fill:none;stroke:#000000;stroke-width:0.49999803;stroke-linecap:butt;stroke-linejoin:round;stroke-miterlimit:10;stroke-dasharray:none;stroke-opacity:1"
       d="m 54.91653,869.83086 0,-11.00073" /><g
       transform="scale(0.99999705,0.99999705)"
       id="g5348"><text
   id="text5350"
   style="font-variant:normal;font-weight:normal;font-size:10px;font-family:Helvetica;-inkscape-font-specification:Helvetica;writing-mode:lr-tb;fill:#000000;fill-opacity:1;fill-rule:nonzero;stroke:none"
   transform="matrix(1,0,0,-1,52.1668,30.9999)"><tspan
     id="tspan5352"
     y="0"
     x="0">0</tspan></text>

</g><path
       inkscape:connector-curvature="0"
       id="path5354"
       style="fill:none;stroke:#000000;stroke-width:0.49999803;stroke-linecap:butt;stroke-linejoin:round;stroke-miterlimit:10;stroke-dasharray:none;stroke-opacity:1"
       d="m 421.99884,43.082978 0,11.083311" /><path
       inkscape:connector-curvature="0"
       id="path5356"
       style="fill:none;stroke:#000000;stroke-width:0.49999803;stroke-linecap:butt;stroke-linejoin:round;stroke-miterlimit:10;stroke-dasharray:none;stroke-opacity:1"
       d="m 421.99884,869.83086 0,-11.00073" /><g
       transform="scale(0.99999705,0.99999705)"
       id="g5358"><text
   id="text5360"
   style="font-variant:normal;font-weight:normal;font-size:10px;font-family:Helvetica;-inkscape-font-specification:Helvetica;writing-mode:lr-tb;fill:#000000;fill-opacity:1;fill-rule:nonzero;stroke:none"
   transform="matrix(1,0,0,-1,416.5,30.9999)"><tspan
     id="tspan5362"
     sodipodi:role="line"
     y="0"
     x="0 5.5599999">50</tspan></text>

</g><path
       inkscape:connector-curvature="0"
       id="path5364"
       style="fill:none;stroke:#000000;stroke-width:0.49999803;stroke-linecap:butt;stroke-linejoin:round;stroke-miterlimit:10;stroke-dasharray:none;stroke-opacity:1"
       d="m 789.08124,43.082978 0,11.083311" /><path
       inkscape:connector-curvature="0"
       id="path5366"
       style="fill:none;stroke:#000000;stroke-width:0.49999803;stroke-linecap:butt;stroke-linejoin:round;stroke-miterlimit:10;stroke-dasharray:none;stroke-opacity:1"
       d="m 789.08124,869.83086 0,-11.00073" /><g
       transform="scale(0.99999705,0.99999705)"
       id="g5368"><text
   id="text5370"
   style="font-variant:normal;font-weight:normal;font-size:10px;font-family:Helvetica;-inkscape-font-specification:Helvetica;writing-mode:lr-tb;fill:#000000;fill-opacity:1;fill-rule:nonzero;stroke:none"
   transform="matrix(1,0,0,-1,780.75,30.9999)"><tspan
     id="tspan5372"
     sodipodi:role="line"
     y="0"
     x="0 5.5599999 11.12">100</tspan></text>

</g><path
       inkscape:connector-curvature="0"
       id="path5374"
       style="fill:none;stroke:#000000;stroke-width:0.49999803;stroke-linecap:butt;stroke-linejoin:round;stroke-miterlimit:10;stroke-dasharray:none;stroke-opacity:1"
       d="m 1156.1585,43.082978 0,11.083311" /><g
       transform="scale(0.99999705,0.99999705)"
       id="g5378"><text
   id="text5380"
   style="font-variant:normal;font-weight:normal;font-size:10px;font-family:Helvetica;-inkscape-font-specification:Helvetica;writing-mode:lr-tb;fill:#000000;fill-opacity:1;fill-rule:nonzero;stroke:none"
   transform="matrix(1,0,0,-1,1147.83,30.9999)"><tspan
     id="tspan5382"
     sodipodi:role="line"
     y="0"
     x="0 5.5599999 11.12">150</tspan></text>

</g><path
       inkscape:connector-curvature="0"
       id="path5384"
       style="fill:none;stroke:#000000;stroke-width:0.49999803;stroke-linecap:butt;stroke-linejoin:round;stroke-miterlimit:10;stroke-dasharray:none;stroke-opacity:1"
       d="m 54.91653,43.082978 10.999905,0" /><path
       inkscape:connector-curvature="0"
       id="path5386"
       style="fill:none;stroke:#000000;stroke-width:0.49999803;stroke-linecap:butt;stroke-linejoin:round;stroke-miterlimit:10;stroke-dasharray:none;stroke-opacity:1"
       d="m 1156.1585,43.082978 -11.0797,0" /><g
       transform="scale(0.99999705,0.99999705)"
       id="g5388"><text
   id="text5390"
   style="font-variant:normal;font-weight:normal;font-size:10px;font-family:Helvetica;-inkscape-font-specification:Helvetica;writing-mode:lr-tb;fill:#000000;fill-opacity:1;fill-rule:nonzero;stroke:none"
   transform="matrix(1,0,0,-1,40.6666,39.4163)"><tspan
     id="tspan5392"
     sodipodi:role="line"
     y="0"
     x="0 5.8400002">−1</tspan></text>

</g><path
       inkscape:connector-curvature="0"
       id="path5394"
       style="fill:none;stroke:#000000;stroke-width:0.49999803;stroke-linecap:butt;stroke-linejoin:round;stroke-miterlimit:10;stroke-dasharray:none;stroke-opacity:1"
       d="m 54.91653,208.49879 10.999905,0" /><path
       inkscape:connector-curvature="0"
       id="path5396"
       style="fill:none;stroke:#000000;stroke-width:0.49999803;stroke-linecap:butt;stroke-linejoin:round;stroke-miterlimit:10;stroke-dasharray:none;stroke-opacity:1"
       d="m 1156.1585,208.49879 -11.0797,0" /><g
       transform="scale(0.99999705,0.99999705)"
       id="g5398"><text
   id="text5400"
   style="font-variant:normal;font-weight:normal;font-size:10px;font-family:Helvetica;-inkscape-font-specification:Helvetica;writing-mode:lr-tb;fill:#000000;fill-opacity:1;fill-rule:nonzero;stroke:none"
   transform="matrix(1,0,0,-1,32.3332,204.833)"><tspan
     id="tspan5402"
     sodipodi:role="line"
     y="0"
     x="0 5.8400002 11.4 14.18">−0.5</tspan></text>

</g><path
       inkscape:connector-curvature="0"
       id="path5404"
       style="fill:none;stroke:#000000;stroke-width:0.49999803;stroke-linecap:butt;stroke-linejoin:round;stroke-miterlimit:10;stroke-dasharray:none;stroke-opacity:1"
       d="m 54.91653,373.8318 10.999905,0" /><path
       inkscape:connector-curvature="0"
       id="path5406"
       style="fill:none;stroke:#000000;stroke-width:0.49999803;stroke-linecap:butt;stroke-linejoin:round;stroke-miterlimit:10;stroke-dasharray:none;stroke-opacity:1"
       d="m 1156.1585,373.8318 -11.0797,0" /><g
       transform="scale(0.99999705,0.99999705)"
       id="g5408"><text
   id="text5410"
   style="font-variant:normal;font-weight:normal;font-size:10px;font-family:Helvetica;-inkscape-font-specification:Helvetica;writing-mode:lr-tb;fill:#000000;fill-opacity:1;fill-rule:nonzero;stroke:none"
   transform="matrix(1,0,0,-1,46.4999,370.166)"><tspan
     id="tspan5412"
     y="0"
     x="0">0</tspan></text>

</g><path
       inkscape:connector-curvature="0"
       id="path5414"
       style="fill:none;stroke:#000000;stroke-width:0.49999803;stroke-linecap:butt;stroke-linejoin:round;stroke-miterlimit:10;stroke-dasharray:none;stroke-opacity:1"
       d="m 54.91653,539.16482 10.999905,0" /><path
       inkscape:connector-curvature="0"
       id="path5416"
       style="fill:none;stroke:#000000;stroke-width:0.49999803;stroke-linecap:butt;stroke-linejoin:round;stroke-miterlimit:10;stroke-dasharray:none;stroke-opacity:1"
       d="m 1156.1585,539.16482 -11.0797,0" /><g
       transform="scale(0.99999705,0.99999705)"
       id="g5418"><text
   id="text5420"
   style="font-variant:normal;font-weight:normal;font-size:10px;font-family:Helvetica;-inkscape-font-specification:Helvetica;writing-mode:lr-tb;fill:#000000;fill-opacity:1;fill-rule:nonzero;stroke:none"
   transform="matrix(1,0,0,-1,38.1668,535.5)"><tspan
     id="tspan5422"
     sodipodi:role="line"
     y="0"
     x="0 5.5599999 8.3400002">0.5</tspan></text>

</g><path
       inkscape:connector-curvature="0"
       id="path5424"
       style="fill:none;stroke:#000000;stroke-width:0.49999803;stroke-linecap:butt;stroke-linejoin:round;stroke-miterlimit:10;stroke-dasharray:none;stroke-opacity:1"
       d="m 54.91653,704.49784 10.999905,0" /><path
       inkscape:connector-curvature="0"
       id="path5426"
       style="fill:none;stroke:#000000;stroke-width:0.49999803;stroke-linecap:butt;stroke-linejoin:round;stroke-miterlimit:10;stroke-dasharray:none;stroke-opacity:1"
       d="m 1156.1585,704.49784 -11.0797,0" /><g
       transform="scale(0.99999705,0.99999705)"
       id="g5428"><text
   id="text5430"
   style="font-variant:normal;font-weight:normal;font-size:10px;font-family:Helvetica;-inkscape-font-specification:Helvetica;writing-mode:lr-tb;fill:#000000;fill-opacity:1;fill-rule:nonzero;stroke:none"
   transform="matrix(1,0,0,-1,46.4999,700.833)"><tspan
     id="tspan5432"
     y="0"
     x="0">1</tspan></text>

</g><path
       inkscape:connector-curvature="0"
       id="path5434"
       style="fill:none;stroke:#000000;stroke-width:0.49999803;stroke-linecap:butt;stroke-linejoin:round;stroke-miterlimit:10;stroke-dasharray:none;stroke-opacity:1"
       d="m 54.91653,869.83086 10.999905,0" /><path
       inkscape:connector-curvature="0"
       id="path5436"
       style="fill:none;stroke:#000000;stroke-width:0.49999803;stroke-linecap:butt;stroke-linejoin:round;stroke-miterlimit:10;stroke-dasharray:none;stroke-opacity:1"
       d="m 1156.1585,869.83086 -11.0797,0" /><g
       transform="scale(0.99999705,0.99999705)"
       id="g5438"><text
   id="text5440"
   style="font-variant:normal;font-weight:normal;font-size:10px;font-family:Helvetica;-inkscape-font-specification:Helvetica;writing-mode:lr-tb;fill:#000000;fill-opacity:1;fill-rule:nonzero;stroke:none"
   transform="matrix(1,0,0,-1,38.1668,866.166)"><tspan
     id="tspan5442"
     sodipodi:role="line"
     y="0"
     x="0 5.5599999 8.3400002">1.5</tspan></text>

</g><path
       inkscape:connector-curvature="0"
       id="path5444"
       style="fill:none;stroke:#000000;stroke-width:0.49999803;stroke-linecap:butt;stroke-linejoin:round;stroke-miterlimit:10;stroke-dasharray:none;stroke-opacity:1"
       d="m 54.91653,43.082978 1101.24197,0" /><path
       inkscape:connector-curvature="0"
       id="path5446"
       style="fill:none;stroke:#000000;stroke-width:0.49999803;stroke-linecap:butt;stroke-linejoin:round;stroke-miterlimit:10;stroke-dasharray:none;stroke-opacity:1"
       d="m 54.91653,869.83086 1101.24197,0" /><path
       inkscape:connector-curvature="0"
       id="path5448"
       style="fill:none;stroke:#000000;stroke-width:0.49999803;stroke-linecap:butt;stroke-linejoin:round;stroke-miterlimit:10;stroke-dasharray:none;stroke-opacity:1"
       d="m 54.91653,43.082978 0,826.747882" /><path
       inkscape:connector-curvature="0"
       id="path5450"
       style="fill:none;stroke:#000000;stroke-width:0.49999803;stroke-linecap:butt;stroke-linejoin:round;stroke-miterlimit:10;stroke-dasharray:none;stroke-opacity:1"
       d="m 1156.1585,43.082978 0,826.747882" /><path
       inkscape:connector-curvature="0"
       id="path5460"
       style="fill:none;stroke:#0000ff;stroke-width:1.99999213;stroke-linecap:butt;stroke-linejoin:round;stroke-miterlimit:10;stroke-dasharray:none;stroke-opacity:1"
       d="m 792.74781,199.58269 3.66657,165.33302 3.66656,165.33199 3.66657,165.33302 3.66657,132.1667 3.66656,-1.66709 3.6676,-17.24949 3.66554,-35.66643 3.66759,-40.66668 3.66657,-50.41683 3.66656,-63.74943 3.66657,-50.41683 3.66657,-77.83298 3.66656,-34.33277 3.66657,-21.08429 3.66657,-17.49981 3.66656,-6.33288 3.66657,-2.58321 3.66657,-3.33315 3.75069,-3.74967 3.66656,-6.91764 3.66657,-10.16564 3.66657,-10.1677 3.66656,-7.58242 3.66657,-6.41701 3.66657,-3.08385 3.66656,-0.49962 3.66657,1.16645 3.66657,-16.58265 3.66759,-114.41657 3.66656,141.58241 3.66657,22.75035 3.66657,8.91713 3.66656,0 3.66657,-5.08334 3.66657,-6.75042 3.66656,-6.16669 3.66657,-4.2503 3.66657,-2.2498 3.75069,-0.41651 3.66656,-0.0831 3.66657,0.41651 3.66657,0.66684 3.66656,0.49961 3.66657,0.1662 3.66657,-0.1662 3.66656,-0.24929 3.6676,-0.41754 3.66554,-0.41652 3.66759,-0.49961 3.66657,-0.41652 3.66656,-0.33341 3.66657,-0.25032 3.66657,-0.25032 3.66656,-0.0831 3.66657,-0.0831 3.66657,-15.66652 3.66653,-35.99985 3.6666,-44.25015 3.7497,92.50027 3.6676,29.08222 3.6665,101.66669 3.6666,76.91685 3.6666,37.91624 3.6675,28.25021 3.6625,6.91661 3.6727,-25.41667 3.6625,-35.00063 3.6727,-39.83262 3.6625,-64.25006 3.6624,-47.16678 3.6728,-17.83322 3.6624,-10.08255 3.6728,-5.66707 3.6624,-4.4165 3.6625,-4.58372 3.6727,-4.58269 3.6625,-2.66734 3.6727,-1.41677 3.7445,-1.58297 3.6727,-1.66708 3.6625,-1.66606 3.6625,-1.58399 3.6727,-1.58297 3.6625,-1.33367 3.6727,-1.24954 3.6624,-1.08335 3.6625,-0.91716 3.6727,-0.74891 3.6625,-0.66683 3.6727,-0.41754 3.6625,-0.33239 3.6624,-0.25032 3.6728,-0.1662 3.6624,-0.0841 3.6727,-0.0831 7.3352,0 3.6625,0.0831 3.7445,0.0841" /><path
       inkscape:connector-curvature="0"
       id="path5462"
       style="fill:none;stroke:#0000ff;stroke-width:1.99999213;stroke-linecap:butt;stroke-linejoin:round;stroke-miterlimit:10;stroke-dasharray:none;stroke-opacity:1"
       d="m 429.33197,552.74774 3.66657,7.25003 3.66656,2.75044 3.66657,-0.66683 3.66657,-7.91687 3.66759,-29.24944 3.66656,-45.16627 3.66657,-35.75056 3.66657,-32.08298 3.66656,-14.91658 3.66657,-2.2498 3.66657,-2.66734 3.66656,-2.58322 3.66657,-2.41599 3.66657,-2.25083 3.66656,-1.91638 3.6676,-1.66708 3.66656,-1.33265 3.74967,-1.16645 3.66656,-1.00025 3.66657,-0.83303 3.66657,-0.74993 3.66656,-0.66684 3.66657,-0.66683 3.66657,-0.49962 3.66759,-0.41754 3.66554,-3.49934 3.66759,-6.99972 3.66657,-0.50064 3.66657,24.74984 3.66656,28.83395 3.66657,19.99992 3.66657,6.41597 3.66656,-3.66656 3.66657,-9.24952 3.66657,-19.33308 3.66656,-8.41751 3.66759,13.0833 3.74967,20.91708 3.66657,16.16613 3.66656,5.75017 3.66657,-5.00024 3.66657,-12.91608 3.66656,-17.00019 3.66657,-17.00019 3.66657,-14.08355 3.66759,-9.33261 3.66656,-8.74991 3.66657,-2.58321 3.66657,-3.00076 3.66656,11.66756 3.66657,11.41622 3.66657,11.16692 3.66656,8.58268 3.66657,4.3334 3.66657,-0.41652 3.66656,-4.4165 3.6676,-6.75042 3.74966,-7.58242 3.66657,-7.08384 3.66656,-5.75017 3.66657,-4.33341 3.66657,-2.74941 3.66656,-0.25032 3.66657,-0.33341 3.66657,-0.41652 3.66759,-0.33342 3.66554,-0.33341 3.66759,-0.33342 3.66657,-0.33342 3.66657,-0.24929 3.66656,-0.25032 3.66657,-0.16722 3.66657,-0.1662 3.66656,-0.16722 3.66657,-0.0831 3.66657,-0.0831 3.66656,-0.0831 3.75069,0 3.66657,-0.0831 25.66597,0 3.66759,0.0831 25.66596,0 3.66657,-23.33307 3.66657,-55.66636 3.66656,-77.41749 3.75069,-81.082 3.66657,64.08284" /><path
       inkscape:connector-curvature="0"
       id="path5464"
       style="fill:none;stroke:#0000ff;stroke-width:1.99999213;stroke-linecap:butt;stroke-linejoin:round;stroke-miterlimit:10;stroke-dasharray:none;stroke-opacity:1"
       d="m 65.916435,190.16595 3.666874,165.33302 3.666361,127.24956 3.666772,-23.9999 3.666772,21.66598 3.666464,29.49975 3.666772,-6.5001 3.666771,-27.99989 3.666362,-65.24929 3.666772,-10.33287 3.666875,-5.91739 3.66616,-3.66656 3.66656,-2.416 3.66759,-1.75018 3.66555,-1.33367 3.66759,-1.08335 3.66656,-1.00026 3.74967,-0.91613 3.66657,-0.91612 3.66656,-0.83406 3.66657,-0.83303 3.66657,-0.83406 3.66656,-0.7489 3.66759,-0.66684 3.66657,-0.58374 3.66657,-11.83375 3.66656,-19.7496 3.66657,-17.83322 3.66657,97.7498 3.66656,45.41659 3.66657,19.91683 3.66657,28.5826 3.66656,13.58394 3.6676,-2.00051 3.66554,-14.91658 3.66759,-47.41608 3.66657,-34.58309 3.74966,-22.25074 3.66657,-14.83246 3.66656,-7.16694 3.66657,-1.49987 3.66657,0.91613 3.66759,0.83303 3.66554,-0.16619 3.66759,-1.08335 3.66657,-1.58297 3.66657,-1.9174 3.66656,-2.16568 3.66657,-2.1667 3.66657,-2.0836 3.66656,-0.74993 3.66657,-0.58374 3.66657,-0.49961 3.66656,-0.58374 3.66759,-0.49962 3.66555,-0.49961 3.66759,-0.33342 3.74966,-0.41754 3.66657,-0.24929 3.66657,-0.25032 3.66656,-0.25032 3.66657,-0.0831 3.66657,-0.16619 3.66759,-0.0831 25.66596,0 3.66657,0.0831 11.00073,0 3.66554,0.0831 11.08382,0 3.66657,-0.33341 3.66656,-0.83303 3.66657,-1.00026 3.66657,-0.58373 3.66759,-0.3324 3.66554,-1.16747 3.66759,-2.2498 3.66657,-0.41651 3.66657,-2.00051 3.66656,4.83404 3.66657,24.49952 3.66657,19.50031 3.66656,25.83318 3.66657,19.58341 3.66657,22.74933 3.66656,22.50004 3.66759,2.99973 3.66555,13.00021 3.75069,9.58293 3.66656,10.08357 3.66657,13.49982" /><path
       inkscape:connector-curvature="0"
       id="path5466"
       style="fill:none;stroke:#0000ff;stroke-width:1.99999213;stroke-linecap:butt;stroke-linejoin:round;stroke-miterlimit:10;stroke-dasharray:none;stroke-opacity:1"
       d="m 58.583301,208.49879 3.666362,34.25069 3.666772,-52.58353" /><path
       inkscape:connector-curvature="0"
       id="path5468"
       style="fill:none;stroke:#ff0000;stroke-width:1.99999213;stroke-linecap:butt;stroke-linejoin:round;stroke-miterlimit:10;stroke-dasharray:none;stroke-opacity:1"
       d="m 792.74781,239.24911 3.66657,165.33302 3.66656,165.41612 3.66657,165.33302 3.66657,40.08293 3.66656,15.58343 3.6676,-10.24977 3.66554,-25.75009 3.66759,-35.00063 3.66657,-51.08264 3.66656,-59.83357 3.66657,-48.91593 3.66657,-81.50058 3.66656,-27.83267 3.66657,-19.33308 3.66657,-15.08381 3.66656,-5.74914 3.66657,-2.25083 3.66657,-2.99973 3.75069,-3.50037 3.66656,-6.33288 3.66657,-9.00022 3.66657,18.83347 3.66656,20.74986 3.66657,16.91709 3.66657,8.7499 3.66656,0 3.66657,-7.50036 3.66657,-5.49985 3.66759,-0.33341 3.66656,-1.08336 3.66657,-4.08308 3.66657,-7.99997 3.66656,-11.16692 3.66657,-12.66678 3.66657,-12.16615 3.66656,-10.16667 3.66657,-1.58297 3.66657,-0.50063 3.75069,-0.49962 3.66656,-0.41651 3.66657,-0.33342 3.66657,-0.0841 3.66656,1.16747 3.66657,1.91638 3.66657,1.24955 3.66656,0.50064 3.6676,-0.0831 3.66554,-0.50064 3.66759,-0.83303 3.66657,-1.00025 3.66656,-1.08335 3.66657,-0.99923 3.66657,-0.83406 3.66656,-0.74993 3.66657,-0.49961 3.66657,-15.83374 3.66653,-35.66644 3.6666,-43.2499 3.7497,79.33285 3.6676,31.66646 3.6665,94.58285 3.6666,86.25049 3.6666,45.00008 3.6675,34.74928 3.6625,11.83376 3.6727,-16.91709 3.6625,-35.16683 3.6727,-40.99907 3.6625,-59.24983 3.6624,-64.58348 3.6728,-25.08325 3.6624,-16.25026 3.6728,-7.91584 3.6624,0 3.6625,-0.41755 3.6727,-0.66683 3.6625,-0.91613 3.6727,-1.16645 3.7445,-1.49986 3.6727,-1.66709 3.6625,-1.83328 3.6625,-1.99948 3.6727,-2.00051 3.6625,-1.99948 3.6727,-1.91741 3.6624,-1.75018 3.6625,-1.58296 3.6727,-1.33367 3.6625,-1.24955 3.6727,-1.00025 3.6625,-0.74994 3.6624,-0.66683 3.6728,-0.41652 3.6624,-0.33341 3.6727,-0.2493 3.6625,-0.0841 3.6727,-0.0831 3.6625,0 3.7445,0.0831" /><path
       inkscape:connector-curvature="0"
       id="path5470"
       style="fill:none;stroke:#ff0000;stroke-width:1.99999213;stroke-linecap:butt;stroke-linejoin:round;stroke-miterlimit:10;stroke-dasharray:none;stroke-opacity:1"
       d="m 429.33197,555.16476 3.66657,6.6663 3.66656,2.0005 3.66657,-1.83328 3.66657,-9.58396 3.66759,-40.49945 3.66656,-38.99959 3.66657,-37.83314 3.66657,-33.25045 3.66656,-0.74993 3.66657,-1.83328 3.66657,-5.16644 3.66656,-20.08301 3.66657,20.33333 3.66657,-0.66683 3.66656,-0.41652 3.6676,-0.25032 3.66656,-0.33341 3.74967,-0.58374 3.66656,1.75019 3.66657,-1.08336 3.66657,-2.0836 3.66656,-2.66631 3.66657,-1.91638 3.66657,-1.58399 3.66759,-1.49987 3.66554,-4.66682 3.66759,-1.49986 3.66657,19.41721 3.66657,28.66672 3.66656,26.83241 3.66657,17.75013 3.66657,6.5001 3.66656,-3.58347 3.66657,-11.0828 3.66657,-20.66675 3.66656,-7.74965 3.66759,12.99918 3.74967,20.33333 3.66657,15.66652 3.66656,4.66682 3.66657,-7.16591 3.66657,-16.50057 3.66656,-21.91631 3.66657,-23.08377 3.66657,-20.83295 3.66759,-14.41698 3.66656,-2.08257 3.66657,-3.75069 3.66657,-3.58347 3.66656,18.83347 3.66657,18.33386 3.66657,13.58291 3.66656,7.00075 3.66657,0.83303 3.66657,-3.91689 3.66656,-7.16694 3.6676,-8.7499 3.74966,-9.24951 3.66657,-8.83403 3.66656,-7.74965 3.66657,-5.91636 3.66657,-1.08335 3.66656,-1.16748 3.66657,-1.16644 3.66657,-1.08335 3.66759,-0.99923 3.66554,-0.83406 3.66759,-0.66683 3.66657,-0.58271 3.66657,-0.41652 3.66656,-0.33342 3.66657,-0.16722 3.66657,-0.16619 3.66656,-0.0831 14.75039,0 3.66657,0.0831 3.66657,0.0831 3.66656,0 3.66657,0.0831 3.66657,0.0841 3.66656,0 3.66657,0.0831 3.66657,0 3.66759,0.0831 10.9997,0 3.66656,0.0831 10.9997,0 3.66657,-23.33307 3.66657,-55.50016 3.66656,-76.91583 3.75069,-57.33345 3.66657,80.25" /><path
       inkscape:connector-curvature="0"
       id="path5472"
       style="fill:none;stroke:#ff0000;stroke-width:1.99999213;stroke-linecap:butt;stroke-linejoin:round;stroke-miterlimit:10;stroke-dasharray:none;stroke-opacity:1"
       d="m 65.916435,184.6661 3.666874,150.91605 3.666361,23.49926 3.666772,-64.83277 3.666772,-1.33265 3.666464,45.49969 3.666772,41.0832 3.666771,42.58305 3.666362,28.58363 3.666772,12.41647 3.666875,2.99973 3.66616,-1.99948 3.66656,-4.2503 3.66759,-5.08334 3.66555,-5.41675 3.66759,-22.16662 3.66656,-2.66632 3.74967,-2.83353 3.66657,-3.08386 3.66656,-3.41624 3.66657,-3.58347 3.66657,-3.83379 3.66656,-3.99999 3.66759,-3.91586 3.66657,-3.83378 3.66657,-33.33355 3.66656,-16.16613 3.66657,4.50062 3.66657,59.74945 3.66656,57.99925 3.66657,18.00044 3.66657,26.33281 3.66656,11.58343 3.6676,-4.66682 3.66554,-32.58258 3.66759,-42.41686 3.66657,-28.66673 3.74966,-22.83345 3.66657,-14.50007 3.66656,-2.83251 3.66657,1.41676 3.66657,1.49987 3.66759,1.58296 3.66554,8.49959 3.66759,6.24978 3.66657,2.91663 3.66657,0.25032 3.66656,-1.66606 3.66657,-2.91663 3.66657,-3.50037 3.66656,-3.74967 3.66657,-2.83353 3.66657,-1.16645 3.66656,-1.33367 3.66759,-1.41677 3.66555,-1.33367 3.66759,-1.24955 3.74966,-1.16644 3.66657,-1.08336 3.66657,-0.91715 3.66656,-0.74993 3.66657,-0.58271 3.66657,-0.58374 3.66759,-0.33342 3.66656,-0.33342 3.66657,-0.16619 3.66657,-0.16722 3.66656,0 3.66657,-0.0831 3.66657,0.0831 3.66656,0 3.66657,0.0841 3.66657,0.0831 3.66656,0.0831 3.6676,0.0831 3.66554,0.0831 3.66759,0.0841 3.74966,0 3.66657,0.0831 3.66657,-0.33341 3.66656,-0.83303 3.66657,-0.75096 3.66657,-0.49962 3.66759,-0.33341 3.66554,-1.33265 3.66759,-2.33392 3.66657,8.7499 3.66657,4.2503 3.66656,9.66706 3.66657,21.08224 3.66657,11.25002 3.66656,18.25076 3.66657,17.91632 3.66657,24.25023 3.66656,25.41667 3.66759,2.91663 3.66555,13.41672 3.75069,9.33262 3.66656,9.91737 3.66657,13.2495" /><path
       inkscape:connector-curvature="0"
       id="path5474"
       style="fill:none;stroke:#ff0000;stroke-width:1.99999213;stroke-linecap:butt;stroke-linejoin:round;stroke-miterlimit:10;stroke-dasharray:none;stroke-opacity:1"
       d="m 58.583301,208.49879 3.666362,34.25069 3.666772,-58.08338" /><path
       inkscape:connector-curvature="0"
       id="path5476"
       style="fill:none;stroke:#000000;stroke-width:1.99999213;stroke-linecap:butt;stroke-linejoin:round;stroke-miterlimit:10;stroke-dasharray:none;stroke-opacity:1"
       d="m 792.74781,110.58279 3.66657,30.6662 3.66656,91.2497 3.66657,83.91657 3.66657,83.00044 3.66656,71.91559 3.6676,57.25035 3.66554,42.33274 3.66759,28.4164 3.66657,16.08406 3.66656,5.74914 3.66657,-2.41599 3.66657,-8.833 3.66656,-13.25052 3.66657,-16.16614 3.66657,-138.33338 3.66656,-31.33304 3.66657,-2.58321 3.66657,-3.33315 3.75069,-3.74967 3.66656,-6.91764 3.66657,-10.16564 3.66657,-10.1677 3.66656,2.33392 3.66657,14.74937 3.66657,8.75093 3.66656,2.41599 3.66657,-1.41677 3.66657,-3.41624 3.66759,-1.41677 3.66656,0.25032 3.66657,0.16619 3.66657,-1.25057 3.66656,-2.83251 3.66657,-3.91688 3.66657,-4.16721 3.66656,-3.74967 3.66657,-2.74941 3.66657,-1.75018 3.75069,-0.83406 3.66656,-0.24929 3.66657,0.0831 3.66657,0.0831 3.66656,0.16722 7.33314,0 3.66656,-0.0841 3.6676,-0.1662 3.66554,-0.24929 3.66759,-0.25032 3.66657,-0.25032 3.66656,-0.16619 3.66657,-0.16723 3.66657,-0.16619 3.66656,-0.0841 3.66657,0 3.66657,-15.91581 3.66653,-35.99985 3.6666,-44.25015 3.7497,-39.66642 3.6676,-24.25023 3.6665,-4.91714 3.6666,12.3344 3.6666,23.74959 3.6675,28.83291 3.6625,28.74983 3.6727,25.58286 3.6625,21.00018 3.6727,15.99993 3.6625,11.25105 3.6624,7.33313 3.6728,165.33302 3.6624,165.33199 3.6728,-259.74864 3.6624,-62.58298 3.6625,-0.41754 3.6727,-0.91613 3.6625,-1.25057 3.6727,-1.41677 3.7445,-1.58297 3.6727,-1.66708 3.6625,-1.66606 3.6625,-1.58399 3.6727,-34.74929 3.6625,31.83265 3.6727,165.33302 3.6624,-174.58253 3.6625,5.99946 3.6727,-0.74891 3.6625,-0.66683 3.6727,-0.41754 3.6625,-0.33239 3.6624,165.33199 3.6728,-165.83263 3.6624,0 3.6727,-0.0831 7.3352,0 3.6625,0.0831 3.7445,0.0841" /><path
       inkscape:connector-curvature="0"
       id="path5478"
       style="fill:none;stroke:#000000;stroke-width:1.99999213;stroke-linecap:butt;stroke-linejoin:round;stroke-miterlimit:10;stroke-dasharray:none;stroke-opacity:1"
       d="m 429.33197,447.6648 3.66657,5.91637 3.66656,3.91688 3.66657,5.33366 3.66657,0.25032 3.66759,-6.91662 3.66656,-13.33362 3.66657,-17.08329 3.66657,-17.24948 3.66656,-11.50034 3.66657,-2.2498 3.66657,-2.66734 3.66656,-2.58322 3.66657,-2.41599 3.66657,-2.25083 3.66656,-1.91638 3.6676,-1.66708 3.66656,-1.33265 3.74967,-1.16645 3.66656,-1.00025 3.66657,-0.83303 3.66657,-0.74993 3.66656,-0.66684 3.66657,-0.66683 3.66657,-0.49962 3.66759,-0.41754 3.66554,-3.49934 3.66759,-6.99972 3.66657,-7.58345 3.66657,2.50012 3.66656,15.99993 3.66657,14.41595 3.66657,8.83403 3.66656,3.49934 3.66657,-0.49961 3.66657,-18.00044 3.66656,-16.74987 3.66759,1.49986 3.74967,11.83376 3.66657,13.91633 3.66656,10.24977 3.66657,4.50062 3.66657,-1.08335 3.66656,-5.00023 3.66657,-6.83352 3.66657,-6.5832 3.66759,-5.24954 3.66656,-9.00022 3.66657,-2.58321 3.66657,-3.00076 3.66656,-2.49909 3.66657,7.41623 3.66657,7.41726 3.66656,6.91559 3.66657,4.91714 3.66657,2.1667 3.66656,-0.49962 3.6676,-2.41702 3.74966,-3.41624 3.66657,-3.58347 3.66656,-3.25005 3.66657,-2.66734 3.66657,-1.99948 3.66656,-0.66684 3.66657,-0.33341 3.66657,-0.41652 3.66759,-0.33342 3.66554,-0.41651 3.66759,-0.25032 3.66657,-0.33342 3.66657,-0.24929 3.66656,-0.25032 3.66657,-0.16723 3.66657,-0.16619 3.66656,-0.16722 3.66657,0.0841 3.66657,0.0831 3.66656,0 3.75069,0.0831 3.66657,0.0831 3.66657,0 3.66656,0.0841 3.66657,0 3.66657,0.0831 7.33313,0 3.66657,0.0831 29.33355,0 3.66657,-24.1661 3.66657,-56.25009 3.66656,-76.83376 3.75069,-86.08224 3.66657,-19.91682" /><path
       inkscape:connector-curvature="0"
       id="path5480"
       style="fill:none;stroke:#000000;stroke-width:1.99999213;stroke-linecap:butt;stroke-linejoin:round;stroke-miterlimit:10;stroke-dasharray:none;stroke-opacity:1"
       d="m 65.916435,145.24897 3.666874,158.74982 3.666361,85.83295 3.666772,2.50012 3.666772,-31.91678 3.666464,15.25001 3.666772,9.49983 3.666771,0.66684 3.666362,-1.83329 3.666772,-1.58296 3.666875,-1.08335 3.66616,-0.66684 3.66656,-0.49961 3.66759,-0.33342 3.66555,-0.25032 3.66759,-0.25032 3.66656,-0.33341 3.74967,-0.33342 3.66657,-0.33342 3.66656,-0.41651 3.66657,-0.41652 3.66657,-0.41651 3.66656,-0.49962 3.66759,-0.41651 3.66657,-0.41754 3.66657,-11.25002 3.66656,-107.74925 3.66657,-30.50001 3.66657,82.00019 3.66656,-5.58398 3.66657,12.4175 3.66657,57.83306 3.66656,35.66644 3.6676,16.58264 3.66554,2.66734 3.66759,-5.83326 3.66657,-9.91635 3.74966,-10.1677 3.66657,-8.16616 3.66656,-5.16644 3.66657,-2.58321 3.66657,-1.00025 3.66759,-0.66684 3.66554,-0.66683 3.66759,-0.74994 3.66657,-1.00025 3.66657,-1.08232 3.66656,-1.16748 3.66657,-1.24954 3.66657,-0.58374 3.66656,-0.49961 3.66657,-0.58374 3.66657,-0.49961 3.66656,-0.58374 3.66759,-0.49962 3.66555,-0.49961 3.66759,-0.41754 3.74966,-0.33342 3.66657,-0.24929 3.66657,-0.25032 3.66656,-0.25032 3.66657,-0.0831 3.66657,-0.16619 3.66759,0 3.66656,-0.0831 21.9994,0 3.66657,0.0831 11.00073,0 3.66554,0.0831 11.08382,0 3.66657,-0.33341 3.66656,-0.83303 3.66657,-1.00026 3.66657,-0.58373 3.66759,-0.3324 3.66554,-1.16747 3.66759,-2.2498 3.66657,-2.33392 3.66657,-4.24928 3.66656,-4.08308 3.66657,9.16642 3.66657,2.1667 3.66656,5.91636 3.66657,3.74967 3.66657,9.41673 3.66656,20.83398 3.66759,6.6663 3.66555,6.99971 3.75069,3.58347 3.66656,7.41623 3.66657,15.91684" /><path
       inkscape:connector-curvature="0"
       id="path5482"
       style="fill:none;stroke:#000000;stroke-width:1.99999213;stroke-linecap:butt;stroke-linejoin:round;stroke-miterlimit:10;stroke-dasharray:none;stroke-opacity:1"
       d="M 58.583301,208.49879 62.249663,85.999658 65.916435,145.24897" /><g
       transform="scale(0.99999705,0.99999705)"
       id="g5492"><text
   id="text5494"
   style="font-variant:normal;font-weight:normal;font-size:20px;font-family:Helvetica;-inkscape-font-specification:Helvetica;writing-mode:lr-tb;fill:#000000;fill-opacity:1;fill-rule:nonzero;stroke:none"
   transform="matrix(1,0,0,-1,565.417,11.7498)"><tspan
     id="tspan5496"
     sodipodi:role="line"
     y="0"
     x="0 5.5599999 10 26.66 37.779999 43.34 53.34 64.459999 74.459999">time[sec]</tspan></text>

<text
   id="text5498"
   style="font-variant:normal;font-weight:normal;font-size:20px;font-family:Helvetica;-inkscape-font-specification:Helvetica;writing-mode:lr-tb;fill:#000000;fill-opacity:1;fill-rule:nonzero;stroke:none"
   transform="matrix(0,1,1,0,23.2499,404.75)"><tspan
     id="tspan5500"
     sodipodi:role="line"
     y="0"
     x="0 10 21.120001 32.240002 43.360001 54.48 60.040001 65.599998 82.260002 87.82 97.82">speed [m/s]</tspan></text>

</g><path
       inkscape:connector-curvature="0"
       id="path5306"
       style="fill:none;stroke:#000000;stroke-width:0.33333236;stroke-linecap:butt;stroke-linejoin:round;stroke-miterlimit:10;stroke-dasharray:0.49999801, 3.9999841;stroke-dashoffset:0;stroke-opacity:1"
       d="m 1156.1585,869.83086 0,0" /><path
       inkscape:connector-curvature="0"
       id="path5330"
       style="fill:none;stroke:#000000;stroke-width:0.33333236;stroke-linecap:butt;stroke-linejoin:round;stroke-miterlimit:10;stroke-dasharray:0.49999801, 3.9999841;stroke-dashoffset:0;stroke-opacity:1"
       d="m 1156.1585,869.83086 0,0" /><path
       inkscape:connector-curvature="0"
       id="path5376"
       style="fill:none;stroke:#000000;stroke-width:0.49999803;stroke-linecap:butt;stroke-linejoin:round;stroke-miterlimit:10;stroke-dasharray:none;stroke-opacity:1"
       d="m 1156.1585,869.83086 0,-11.00073" /><g
       id="g6576"
       transform="matrix(1.1820268,0,0,1.1437776,-442.4987,-262.40611)"><path
         d="m 1218.6666,909.08077 121.7497,0 0,70.83316 -121.7497,0 0,-70.83316 z"
         style="fill:#ffffff;fill-opacity:1;fill-rule:evenodd;stroke:none"
         id="path5502"
         inkscape:connector-curvature="0" /><path
         d="m 1218.6666,909.08077 0,70.83326 121.7436,0 0,-70.83326 -121.7436,0"
         style="fill:none;stroke:#ffffff;stroke-width:0.49999803;stroke-linecap:butt;stroke-linejoin:round;stroke-miterlimit:10;stroke-dasharray:none;stroke-opacity:1"
         id="path5504"
         inkscape:connector-curvature="0" /><path
         d="m 1218.6666,909.08077 121.7436,0"
         style="fill:none;stroke:#000000;stroke-width:0.49999803;stroke-linecap:butt;stroke-linejoin:round;stroke-miterlimit:10;stroke-dasharray:none;stroke-opacity:1"
         id="path5506"
         inkscape:connector-curvature="0" /><path
         d="m 1218.6666,979.91403 121.7436,0"
         style="fill:none;stroke:#000000;stroke-width:0.49999803;stroke-linecap:butt;stroke-linejoin:round;stroke-miterlimit:10;stroke-dasharray:none;stroke-opacity:1"
         id="path5508"
         inkscape:connector-curvature="0" /><path
         d="m 1218.6666,909.08077 0,70.83326"
         style="fill:none;stroke:#000000;stroke-width:0.49999803;stroke-linecap:butt;stroke-linejoin:round;stroke-miterlimit:10;stroke-dasharray:none;stroke-opacity:1"
         id="path5510"
         inkscape:connector-curvature="0" /><path
         d="m 1340.4102,909.08077 0,70.83326"
         style="fill:none;stroke:#000000;stroke-width:0.49999803;stroke-linecap:butt;stroke-linejoin:round;stroke-miterlimit:10;stroke-dasharray:none;stroke-opacity:1"
         id="path5512"
         inkscape:connector-curvature="0" /><path
         d="m 1218.6666,909.08077 121.7436,0"
         style="fill:none;stroke:#000000;stroke-width:0.49999803;stroke-linecap:butt;stroke-linejoin:round;stroke-miterlimit:10;stroke-dasharray:none;stroke-opacity:1"
         id="path5514"
         inkscape:connector-curvature="0" /><path
         d="m 1218.6666,909.08077 0,70.83326"
         style="fill:none;stroke:#000000;stroke-width:0.49999803;stroke-linecap:butt;stroke-linejoin:round;stroke-miterlimit:10;stroke-dasharray:none;stroke-opacity:1"
         id="path5516"
         inkscape:connector-curvature="0" /><path
         d="m 1218.6666,909.08077 121.7436,0"
         style="fill:none;stroke:#000000;stroke-width:0.49999803;stroke-linecap:butt;stroke-linejoin:round;stroke-miterlimit:10;stroke-dasharray:none;stroke-opacity:1"
         id="path5518"
         inkscape:connector-curvature="0" /><path
         d="m 1218.6666,979.91403 121.7436,0"
         style="fill:none;stroke:#000000;stroke-width:0.49999803;stroke-linecap:butt;stroke-linejoin:round;stroke-miterlimit:10;stroke-dasharray:none;stroke-opacity:1"
         id="path5520"
         inkscape:connector-curvature="0" /><path
         d="m 1218.6666,909.08077 0,70.83326"
         style="fill:none;stroke:#000000;stroke-width:0.49999803;stroke-linecap:butt;stroke-linejoin:round;stroke-miterlimit:10;stroke-dasharray:none;stroke-opacity:1"
         id="path5522"
         inkscape:connector-curvature="0" /><path
         d="m 1340.4102,909.08077 0,70.83326"
         style="fill:none;stroke:#000000;stroke-width:0.49999803;stroke-linecap:butt;stroke-linejoin:round;stroke-miterlimit:10;stroke-dasharray:none;stroke-opacity:1"
         id="path5524"
         inkscape:connector-curvature="0" /><g
         id="g5526"
         transform="scale(0.99999705,0.99999705)"><text
   transform="matrix(1,0,0,-1,1273.33,962.833)"
   style="font-variant:normal;font-weight:normal;font-size:10px;font-family:Helvetica;-inkscape-font-specification:Helvetica;writing-mode:lr-tb;fill:#000000;fill-opacity:1;fill-rule:nonzero;stroke:none"
   id="text5528"><tspan
     x="0 2.78 11.11 19.440001 25.280001 32.5 39.169998"
     y="0"
     sodipodi:role="line"
     id="tspan5530">IMM−UKF</tspan></text>

</g><path
         d="m 1226.9969,966.41319 42.0824,0"
         style="fill:none;stroke:#0000ff;stroke-width:1.99999213;stroke-linecap:butt;stroke-linejoin:round;stroke-miterlimit:10;stroke-dasharray:none;stroke-opacity:1"
         id="path5540"
         inkscape:connector-curvature="0" /><g
         id="g5550"
         transform="scale(0.99999705,0.99999705)"><text
   transform="matrix(1,0,0,-1,1273.33,940.916)"
   style="font-variant:normal;font-weight:normal;font-size:10px;font-family:Helvetica;-inkscape-font-specification:Helvetica;writing-mode:lr-tb;fill:#000000;fill-opacity:1;fill-rule:nonzero;stroke:none"
   id="text5552"><tspan
     x="0 7.2199998 13.89"
     y="0"
     sodipodi:role="line"
     id="tspan5554">UKF</tspan></text>

</g><path
         d="m 1226.9969,944.49689 42.0824,0"
         style="fill:none;stroke:#ff0000;stroke-width:1.99999213;stroke-linecap:butt;stroke-linejoin:round;stroke-miterlimit:10;stroke-dasharray:none;stroke-opacity:1"
         id="path5564"
         inkscape:connector-curvature="0" /><g
         id="g5574"
         transform="scale(0.99999705,0.99999705)"><text
   transform="matrix(1,0,0,-1,1273.33,919.083)"
   style="font-variant:normal;font-weight:normal;font-size:10px;font-family:Helvetica;-inkscape-font-specification:Helvetica;writing-mode:lr-tb;fill:#000000;fill-opacity:1;fill-rule:nonzero;stroke:none"
   id="text5576"><tspan
     x="0 7.2199998 15"
     y="0"
     sodipodi:role="line"
     id="tspan5578">NOP</tspan></text>

</g><path
         d="m 1226.9969,922.66368 42.0824,0"
         style="fill:none;stroke:#000000;stroke-width:1.99999213;stroke-linecap:butt;stroke-linejoin:round;stroke-miterlimit:10;stroke-dasharray:none;stroke-opacity:1"
         id="path5588"
         inkscape:connector-curvature="0" /></g></g></svg>